<svg width="155" height="155" viewBox="0 0 155 155" fill="none" xmlns="http://www.w3.org/2000/svg">
<g filter="url(#filter0_d_12_18)">
<path d="M104.324 46.3897C106.717 45.9677 108.807 44.6407 110.206 42.6425C113.093 38.5203 112.078 32.8278 107.968 29.9502C103.859 27.0727 98.1537 28.0786 95.2761 32.1882C93.8769 34.1865 93.3449 36.6046 93.7669 38.9978L101.399 82.3435L92.4246 83.9259L84.7926 40.5802C83.9825 35.9862 84.9334 31.0707 87.8198 26.9485C93.5925 18.7042 104.96 16.6998 113.204 22.4725C121.449 28.2453 123.453 39.6128 117.68 47.8571C114.794 51.9792 110.509 54.5414 105.915 55.3514L104.324 46.3897Z" fill="#3DD2CC"/>
<path d="M104.324 46.3896L104.629 48.1204C107.483 47.6281 109.997 46.0171 111.66 43.6419C115.101 38.7279 113.903 31.9331 108.989 28.4923C104.075 25.0516 97.2928 26.2585 93.8395 31.1636C92.1763 33.5389 91.5311 36.4397 92.036 39.3029L99.3628 80.9179L93.8714 81.8862L86.5232 40.2749C85.7885 36.1083 86.6513 31.693 89.2561 27.973C89.5201 27.596 89.6333 27.1134 89.5416 26.6558C89.4499 26.1983 89.1999 25.7798 88.8228 25.5158C88.4458 25.2518 87.9632 25.1386 87.5057 25.2303C87.0482 25.3219 86.6296 25.572 86.3656 25.949C86.1016 26.3261 85.9884 26.8087 86.0801 27.2662C86.1718 27.7237 86.4218 28.1423 86.7989 28.4063C87.1759 28.6703 87.6585 28.7835 88.116 28.6918C88.5735 28.6001 88.9921 28.35 89.2561 27.973C94.487 20.5293 104.735 18.7333 112.183 23.9303C119.627 29.1612 121.423 39.4088 116.226 46.8576C113.613 50.5901 109.755 52.8897 105.601 53.6332L105.906 55.3639L107.637 55.0588L106.054 46.0844L104.324 46.3896L104.629 48.1204L104.324 46.3896L102.593 46.6948L104.175 55.6691C104.254 56.1178 104.517 56.5452 104.894 56.8092C105.271 57.0732 105.754 57.1864 106.211 57.0947C111.254 56.2055 115.957 53.3933 119.125 48.869C125.461 39.8204 123.265 27.3631 114.216 21.0272C105.168 14.6913 92.7103 16.8878 86.3744 25.9365C86.1104 26.3135 85.9972 26.7961 86.0889 27.2536C86.1806 27.7112 86.4306 28.1297 86.8077 28.3937C87.1847 28.6577 87.6673 28.7709 88.1248 28.6792C88.5823 28.5875 89.0009 28.3375 89.2649 27.9604C89.5289 27.5834 89.6421 27.1008 89.5504 26.6433C89.4587 26.1858 89.2087 25.7672 88.8316 25.5032C88.4546 25.2392 87.972 25.126 87.5145 25.2177C87.057 25.3094 86.6384 25.5594 86.3744 25.9365C83.2152 30.4482 82.1725 35.8426 83.0617 40.8853L90.7151 84.2273C90.8846 85.1888 91.802 85.8312 92.7636 85.6617L101.738 84.0792C102.187 84.0001 102.614 83.7375 102.878 83.3605C103.142 82.9834 103.255 82.5008 103.163 82.0433L95.4975 38.6925C95.1547 36.7481 95.5861 34.8214 96.7087 33.1913C99.0318 29.8735 103.626 29.0635 106.944 31.3866C110.262 33.7098 111.072 38.3038 108.748 41.6216C107.613 43.2429 105.95 44.3072 104.006 44.6501C103.536 44.7329 103.13 44.9918 102.866 45.3688C102.593 45.7584 102.488 46.2285 102.58 46.686L104.324 46.3896Z" fill="#3DD2CC"/>
<path d="M104.564 100.292C104.986 102.685 106.313 104.776 108.311 106.175C112.42 109.052 118.126 108.046 121.003 103.937C123.889 99.8147 122.887 94.1309 118.778 91.2534C116.779 89.8542 114.361 89.3222 111.968 89.7442L68.6224 97.3762L67.04 88.4019L110.386 80.7698C114.98 79.9598 119.883 80.9019 124.005 83.7883C132.249 89.561 134.254 100.928 128.472 109.185C122.69 117.442 111.332 119.434 103.087 113.661C98.9653 110.775 96.4032 106.49 95.5931 101.896L104.564 100.292Z" fill="#3DD2CC"/>
<path d="M104.564 100.292L102.833 100.597C103.325 103.452 104.936 105.966 107.311 107.629C112.225 111.07 119.02 109.872 122.461 104.958C125.902 100.044 124.716 93.2576 119.802 89.8169C119.413 89.5441 118.943 89.4397 118.485 89.5314C118.015 89.6143 117.609 89.8731 117.345 90.2502L118.79 91.2621L119.802 89.8169C117.427 88.1537 114.526 87.5085 111.672 88.0008L70.048 95.3402L69.0797 89.8488L110.691 82.5006C114.849 81.7785 119.26 82.6199 122.993 85.2335C123.659 85.6999 124.575 85.6485 125.184 85.1006C125.792 84.5526 125.953 83.654 125.552 82.9426L124.005 83.7882L122.993 85.2335C130.437 90.4644 132.232 100.712 127.027 108.173C121.796 115.617 111.548 117.413 104.099 112.216C100.367 109.602 98.0673 105.745 97.3239 101.591L95.5931 101.896L95.8983 103.627L104.873 102.044L104.564 100.292L102.833 100.597L104.564 100.292L104.258 98.5613L95.2841 100.144C94.3226 100.313 93.6802 101.231 93.8498 102.192C94.7264 107.226 97.5512 111.939 102.075 115.107C111.124 121.442 123.581 119.246 129.917 110.197C136.253 101.149 134.065 88.6789 125.017 82.343C124.351 81.8766 123.434 81.928 122.826 82.4759C122.218 83.0238 122.057 83.9224 122.457 84.6339L124.005 83.7882L125.017 82.343C120.492 79.175 115.111 78.1411 110.068 79.0303L66.7348 86.6711C66.2861 86.7502 65.8587 87.0128 65.5947 87.3898C65.3307 87.7669 65.2175 88.2495 65.3092 88.707L66.8916 97.6813C67.0612 98.6429 67.9786 99.2853 68.9401 99.1157L112.273 91.4749C114.23 91.1408 116.144 91.5634 117.766 92.6986C118.143 92.9626 118.625 93.0758 119.083 92.9841C119.54 92.8924 119.959 92.6424 120.223 92.2653L118.778 91.2533L117.766 92.6986C121.084 95.0218 121.894 99.6158 119.558 102.925C117.235 106.243 112.641 107.053 109.323 104.73C107.702 103.594 106.637 101.931 106.294 99.9869C106.212 99.5168 105.953 99.1108 105.576 98.8468C105.186 98.574 104.716 98.4696 104.258 98.5613L104.564 100.292Z" fill="#3DD2CC"/>
<path d="M50.4122 46.6423C49.9777 44.2403 48.6633 42.1587 46.665 40.7596C42.5429 37.8732 36.8503 38.8879 33.9728 42.9975C31.0864 47.1197 32.0886 52.8034 36.202 55.7024C38.2002 57.1016 40.6184 57.6335 43.0115 57.2116L86.3661 49.567L87.9485 58.5413L44.6027 66.1733C40.0087 66.9834 35.0932 66.0325 30.9711 63.1461C22.7142 57.3646 20.7223 46.0059 26.5039 37.749C32.2766 29.5047 43.6441 27.5003 51.8884 33.2731C56.0106 36.1594 58.5727 40.4445 59.3828 45.0385L50.4122 46.6423Z" fill="#3DD2CC"/>
<path d="M50.4123 46.6423L52.1431 46.3371C51.6508 43.4827 50.0398 40.9687 47.6645 39.3055C42.7506 35.8648 35.9558 37.0629 32.515 41.9768C29.0742 46.8907 30.2598 53.6768 35.1775 57.1389C35.5671 57.4117 36.0371 57.5161 36.4946 57.4244C36.9647 57.3415 37.3707 57.0826 37.6347 56.7056L36.1895 55.6936L35.1775 57.1389C37.5527 58.8021 40.4535 59.4473 43.3168 58.9424L84.9405 51.603L85.9088 57.0944L44.2976 64.4426C40.1398 65.1648 35.7157 64.3145 31.9869 61.7223C31.3459 61.2735 30.5026 61.301 29.8917 61.7723C29.2807 62.2435 29.0531 63.0768 29.3346 63.7983L30.9749 63.1676L31.9869 61.7223C24.5519 56.4788 22.7472 46.2438 27.953 38.7825C33.1839 31.3387 43.4189 29.534 50.8802 34.7398C54.6128 37.3533 56.9124 41.211 57.6559 45.3651L59.3866 45.0599L59.0814 43.3291L50.1071 44.9116L50.4123 46.6423L52.1431 46.3371L50.4123 46.6423L50.7175 48.3731L59.6918 46.7907C60.1619 46.7078 60.5679 46.4489 60.8319 46.0719C61.1047 45.6823 61.2091 45.2122 61.1174 44.7547C60.2194 39.7246 57.416 35.0084 52.8829 31.853C43.8342 25.5171 31.377 27.7136 25.0411 36.7622C18.7052 45.8109 20.8929 58.2807 29.9415 64.6166C30.5825 65.0654 31.4258 65.0379 32.0368 64.5666C32.6477 64.0954 32.8753 63.2621 32.5938 62.5406L30.9535 63.1713L29.9415 64.6166C34.4533 67.7758 39.8477 68.8185 44.8904 67.9293L88.2361 60.2973C89.1977 60.1277 89.84 59.2103 89.6705 58.2488L88.0881 49.2744C87.9185 48.3129 87.0011 47.6705 86.0396 47.8401L42.7152 55.4683C40.7582 55.8024 38.844 55.3798 37.214 54.2572C36.837 53.9932 36.3544 53.88 35.8968 53.9717C35.4393 54.0634 35.0208 54.3134 34.7568 54.6904L36.202 55.7024L37.214 54.2572C33.8962 51.934 33.0861 47.34 35.4181 44.0096C37.7413 40.6918 42.3265 39.8943 45.6531 42.2049C47.2743 43.3401 48.3261 44.9943 48.6815 46.9475C48.8511 47.909 49.7685 48.5514 50.73 48.3819L50.4123 46.6423Z" fill="#3DD2CC"/>
<path d="M130.543 74.4506L129.098 73.4386L130.543 74.4506L131.555 73.0053C125.359 68.667 117.95 66.7567 110.502 67.4973L110.679 69.2506L112.41 68.9454L111.856 65.8044L110.125 66.1096L110.558 67.8178C117.811 65.9661 124.116 61.6157 128.454 55.4199C138.381 41.2437 134.935 21.6372 120.746 11.7021C106.557 1.76703 86.9542 5.23454 77.028 19.4107C72.6896 25.6065 70.792 33.0244 71.5199 40.4639L73.2733 40.2869L72.9681 38.5562L69.8271 39.11L70.1323 40.8408L71.8404 40.4074C69.9888 33.155 65.6258 26.8411 59.43 22.5027C45.2664 12.5852 25.651 16.0439 15.7248 30.2201C5.78968 44.4089 9.25719 64.0117 23.4246 73.9505C23.8016 74.2145 24.2842 74.3277 24.7418 74.236C25.1993 74.1443 25.6178 73.8942 25.8818 73.5172L24.4366 72.5052L23.4246 73.9505C29.6204 78.2888 37.0294 80.1991 44.4778 79.4586L44.3008 77.7052L42.57 78.0104L43.1239 81.1514L44.8546 80.8462L44.4213 79.138C37.1688 80.9897 30.8549 85.3527 26.5254 91.5359C16.5991 105.712 20.0578 125.327 34.234 135.254C48.4228 145.189 68.0255 141.721 77.9518 127.545C78.2158 127.168 78.329 126.685 78.2373 126.228C78.1456 125.77 77.8955 125.352 77.5185 125.088L76.5065 126.533L77.9518 127.545C82.2901 121.349 84.2004 113.94 83.4598 106.492L81.7065 106.669L82.0117 108.4L85.1527 107.846L84.8475 106.115L83.1393 106.548C84.9822 113.813 89.354 120.115 95.5498 124.453C109.726 134.379 129.341 130.921 139.268 116.744C149.203 102.556 145.735 82.953 131.568 73.0141C131.191 72.7501 130.708 72.6369 130.251 72.7286C129.793 72.8203 129.374 73.0704 129.11 73.4474L130.543 74.4506L129.531 75.8958C142.094 84.7297 145.157 102.101 136.373 114.699C127.539 127.262 110.168 130.325 97.57 121.541C92.0528 117.678 88.2176 112.108 86.5607 105.648C86.3258 104.753 85.4536 104.18 84.5473 104.35L81.4063 104.904C80.5089 105.062 79.864 105.903 79.9581 106.812C80.6108 113.45 78.9332 119.991 75.0788 125.496C74.8148 125.873 74.7017 126.356 74.7933 126.813C74.885 127.271 75.1351 127.689 75.5121 127.953L76.5241 126.508L75.0788 125.496C66.2362 138.071 48.8645 141.134 36.2668 132.351C23.7043 123.517 20.6286 106.136 29.4247 93.5473C33.2879 88.0302 38.8576 84.1949 45.3182 82.538C46.2131 82.3031 46.7864 81.4309 46.6156 80.5247L46.0617 77.3837C45.9035 76.4862 45.0627 75.8413 44.154 75.9355C37.5163 76.5881 30.9745 74.9105 25.4699 71.0562C25.0929 70.7922 24.6103 70.679 24.1528 70.7707C23.6952 70.8624 23.2767 71.1124 23.0127 71.4895L24.4579 72.5015L25.4699 71.0562C12.8948 62.2136 9.83174 44.8418 18.6153 32.2441C27.4491 19.6816 44.8209 16.6185 57.4186 25.402C62.9357 29.2652 66.7709 34.835 68.4279 41.2955C68.6628 42.1905 69.5438 42.7512 70.4412 42.5929L73.5822 42.0391C74.4797 41.8808 75.1245 41.0401 75.0304 40.1313C74.369 33.5062 76.0553 26.9519 79.9097 21.4473C88.7523 8.87219 106.124 5.80908 118.722 14.5926C131.284 23.4265 134.347 40.7982 125.564 53.3959C121.701 58.9131 116.122 62.7609 109.683 64.414C108.788 64.6489 108.215 65.5211 108.386 66.4273L108.939 69.5684C109.098 70.4658 109.938 71.1107 110.847 71.0166C117.485 70.3639 124.027 72.0415 129.531 75.8958C129.908 76.1598 130.391 76.273 130.848 76.1813C131.306 76.0896 131.724 75.8396 131.988 75.4626L130.543 74.4506L129.531 75.8958L130.543 74.4506Z" fill="#3DD2CC"/>
<path d="M50.6738 100.541C48.2807 100.963 46.1903 102.29 44.7911 104.288C41.9136 108.398 42.9195 114.103 47.0291 116.98C51.1387 119.858 56.835 118.865 59.7214 114.742C61.1206 112.744 61.6526 110.326 61.2306 107.933L53.5772 64.591L62.5515 63.0085L70.1961 106.363C71.0061 110.957 70.0641 115.86 67.1777 119.982C61.405 128.227 50.0375 130.231 41.7932 124.458C33.5363 118.677 31.5445 107.318 37.3172 99.0737C40.2036 94.9515 44.4886 92.3893 49.0826 91.5793L50.6738 100.541Z" fill="#3DD2CC"/>
<path d="M50.6737 100.541L50.3686 98.8103C47.5267 99.3114 45.0001 100.914 43.3583 103.285C39.9176 108.199 41.1157 114.994 46.0296 118.435C50.9435 121.875 57.7296 120.69 61.1791 115.763C61.4519 115.374 61.5563 114.904 61.4646 114.446C61.3817 113.976 61.1229 113.57 60.7458 113.306L59.7339 114.751L61.1791 115.763C62.8423 113.388 63.4875 110.487 62.9952 107.633L55.6256 66.0253L61.1259 65.0445L68.4527 106.659C69.1874 110.826 68.3459 115.238 65.7323 118.97C65.2571 119.649 65.3174 120.553 65.8653 121.161C66.4132 121.769 67.3206 121.918 68.0321 121.517L67.165 119.973L65.7198 118.961C60.4889 126.405 50.2413 128.201 42.7925 123.004C35.3487 117.773 33.5528 107.526 38.7498 100.077C41.3634 96.3443 45.2211 94.0447 49.3751 93.3012L49.07 91.5705L47.3392 91.8756L48.9216 100.85L50.6737 100.541L50.3686 98.8103L50.6737 100.541L52.4045 100.236L50.8221 91.2615C50.6525 90.3 49.7351 89.6576 48.7736 89.8271C43.7397 90.7037 39.0272 93.5285 35.8593 98.0529C29.5234 107.101 31.7199 119.559 40.7685 125.895C49.8172 132.231 62.2744 130.034 68.6103 120.985C69.0855 120.307 69.0253 119.403 68.4774 118.795C67.9295 118.186 67.022 118.038 66.3106 118.439L67.1776 119.982L68.6229 120.994C71.7908 116.47 72.8247 111.088 71.9356 106.045L64.3036 62.6996C64.2207 62.2295 63.9618 61.8235 63.5848 61.5595C63.1952 61.2867 62.7251 61.1823 62.2676 61.274L53.2933 62.8564C52.3318 63.026 51.6894 63.9434 51.8589 64.9049L59.4909 108.251C59.825 110.208 59.3936 112.134 58.2798 113.752C58.0158 114.129 57.9026 114.612 57.9943 115.069C58.086 115.527 58.336 115.945 58.7131 116.209L59.7251 114.764L58.2798 113.752C55.9566 117.07 51.3714 117.867 48.0448 115.557C44.7269 113.233 43.9169 108.639 46.2401 105.322C47.3753 103.7 49.0383 102.636 50.9827 102.293C51.9442 102.124 52.5866 101.206 52.4171 100.245L50.6737 100.541Z" fill="#3DD2CC"/>
<path d="M67.0274 88.3931L68.7582 88.0879L64.5874 64.4342L86.5016 60.5811L90.376 82.4915L66.7222 86.6623L67.0274 88.3931L68.7582 88.0879L67.0274 88.3931L67.3326 90.1239L92.7171 85.6479C93.1658 85.5688 93.5932 85.3061 93.8572 84.9291C94.1212 84.5521 94.2344 84.0695 94.1427 83.612L89.6755 58.2149C89.506 57.2533 88.5885 56.6109 87.627 56.7805L62.2425 61.2564C61.2809 61.426 60.6386 62.3434 60.8081 63.305L65.2878 88.7109C65.367 89.1596 65.6296 89.5869 66.0066 89.8509C66.3836 90.1149 66.8663 90.2281 67.3238 90.1364L67.0274 88.3931Z" fill="#3DD2CC"/>
</g>
<defs>
<filter id="filter0_d_12_18" x="0" y="0" width="154.992" height="155" filterUnits="userSpaceOnUse" color-interpolation-filters="sRGB">
<feFlood flood-opacity="0" result="BackgroundImageFix"/>
<feColorMatrix in="SourceAlpha" type="matrix" values="0 0 0 0 0 0 0 0 0 0 0 0 0 0 0 0 0 0 127 0" result="hardAlpha"/>
<feOffset dy="4"/>
<feGaussianBlur stdDeviation="5"/>
<feComposite in2="hardAlpha" operator="out"/>
<feColorMatrix type="matrix" values="0 0 0 0 0.239216 0 0 0 0 0.823529 0 0 0 0 0.8 0 0 0 0.2 0"/>
<feBlend mode="normal" in2="BackgroundImageFix" result="effect1_dropShadow_12_18"/>
<feBlend mode="normal" in="SourceGraphic" in2="effect1_dropShadow_12_18" result="shape"/>
</filter>
</defs>
</svg>
