<svg width="97" height="34" viewBox="0 0 97 34" fill="none" xmlns="http://www.w3.org/2000/svg">
<path d="M15.5975 33.873L12.6051 33.8337V14.9221L8.84674 25.5768L6.31545 25.9951L4.74328 19.8306L3.24749 13.1338L4.03636 19.5943L3.70129 33.7211L0 33.6745C0 33.0389 0.561522 0.609863 0.561522 0.609863H3.03301L7.21477 19.1748L6.9874 22.6287L11.5695 0.609863H14.7148L15.5975 33.873ZM30.7548 4.70322L31.4551 15.3508L31.0483 25.9069L28.3301 33.1031L22.382 33.873L18.5215 26.7439L18.4985 9.3145C18.377 8.86058 20.1572 2.28314 20.1572 2.28314L25.3147 0L27.6664 0.5991L23.1708 3.48773L20.4931 9.42391L20.5769 22.0197C20.5769 22.0197 22.4326 29.4014 22.6213 29.4014C22.8101 29.4014 25.0523 31.3996 25.0523 31.3996L27.3277 29.6298L29.153 23.4272L29.9484 15.0938L28.5676 8.35842L25.3882 8.96753L23.422 15.742L24.0913 18.9758L26.4339 18.405L25.3358 14.3336L26.873 13.9912C26.873 13.9912 27.5008 18.9566 27.5008 19.1281C27.5008 19.2523 25.9323 26.8905 25.9323 26.8905L24.6143 28.2039L23.4848 21.5828L22.5432 15.7424L23.8612 6.85626L28.2703 2.30368L30.7548 4.70322ZM45.655 0.455771L43.9706 11.1839H41.8876L43.8905 11.6926L40.4066 33.8723L38.4146 33.7225L32.4232 0.455365H36.2515L38.745 20.0556L39.2983 25.367L39.1197 21.8081L42.1564 0.455246H45.6551L45.655 0.455771ZM54.2059 30.8574L56.1353 30.8665L56.0009 33.873L49.1546 33.8611L49.0009 31.1716L50.7019 31.0584L50.8795 25.9586L50.5343 7.11963L50.1624 13.7564C50.0603 10.2942 49.9811 6.39095 49.9295 3.88609L47.6017 3.98289V0.686917L56.3463 0.625716L56.2119 3.73535L54.1639 3.7098L54.2059 30.8574ZM70.9848 23.9761C71.1182 24.4327 71.1718 28.0858 70.9039 28.5416C70.637 28.9982 66.4497 33.8173 66.4497 33.8173L64.1917 33.8629L62.117 33.8712L62.5515 29.3981L62.8561 26.4254L63.4471 23.6528L64.4587 21.2911L67.0849 22.8811L67.9648 26.829L66.3613 28.2984L65.2917 28.0125L66.6614 26.7422L64.8903 24.545L64.0214 28.6546L64.1052 30.3103L64.79 31.1185L66.2159 30.9286L68.321 28.8455L69.3013 25.0025L67.6417 21.6828L65.5035 19.2097L63.4204 18.7247L62.2174 20.8152L61.4719 26.5121C61.4719 26.5121 61.065 33.6583 61.0264 33.5945V33.662L59.3336 33.8228C59.2002 33.7424 59.3336 0.636658 59.3336 0.636658L64.1443 1.20654L66.4161 3.03301L68.5543 7.48515L68.3187 8.53175L67.2629 7.02852C67.2629 7.02852 64.8568 4.21198 64.5898 4.1362C64.3229 4.06043 62.0953 3.60378 62.0953 3.60378L60.8922 6.34347V9.99652L63.476 11.6705L65.4836 10.5289L66.3939 8.93524L64.6119 7.22292L63.4089 7.81287L64.7012 9.107L63.9657 10.0011L62.1394 8.93172L62.4736 6.53896L63.2091 5.51152L65.9485 6.97543L68.1319 9.58181L65.8822 13.4211L63.2091 14.4485L66.149 16.275L68.5552 17.8732C68.5552 17.8732 69.9699 20.1225 70.1033 20.465C70.2368 20.8075 70.8517 23.5189 70.9851 23.9756L70.9848 23.9761ZM76.7206 30.747L82.5712 30.4474V33.7707L73.2006 33.873L73.4409 20.5671L72.5793 0.655872L82.1761 0.636697L81.9175 3.88609L75.1297 3.71533L77.0793 4.24228L75.9545 14.6597L80.8838 14.9638L81.0366 18.6167L77.3446 18.7427L77.1052 16.8852L76.7206 30.747ZM93.3986 5.17265L90.6547 3.79023L88.6986 5.05148L88.4188 7.88804L88.7317 9.49993C89.6117 10.5355 93.5311 16.6743 93.5311 16.6743L96.5227 21.9466C96.5227 21.9466 97.016 28.4427 96.9995 28.7568C96.983 29.0709 95.0904 33.0262 95.0904 33.0262L90.1126 33.8746L86.2511 32.1157L84.5398 28.9622L85.3563 23.3401L89.4838 21.5556L92.1439 23.8816L92.5278 27.4451L90.6344 29.5436L88.2006 28.8907L88.3921 26.4934L89.8685 25.6751L89.8105 26.5318L88.8901 27.8825L90.42 27.6597L91.0505 25.4578L89.3596 24.4331L87.8895 25.8322L87.3372 28.1199L87.5995 29.6322L91.3155 30.5555L93.1187 28.2203L93.5495 26.6824L93.2429 22.9627L90.5193 17.4083L87.1025 12.958L85.3038 7.14431L86.4544 2.31139L90.2514 0.396282L94.6237 1.79717L96.0762 3.78984L96.1195 7.84738L94.3936 10.6446L91.1167 10.5423L89.4101 7.68932L90.1355 5.67843L91.4012 5.27841L93.0406 6.61996L92.7838 7.84738L91.3147 7.199L92.8703 9.20084L93.9426 7.97522L93.3986 5.17265Z" fill="#3DD2CC"/>
</svg>
