<svg width="48" height="48" viewBox="0 0 48 48" fill="none" xmlns="http://www.w3.org/2000/svg">
<g filter="url(#filter0_d_16_2)">
<path d="M25.5291 13.0438C25.9374 12.6355 26.1634 12.0923 26.1634 11.5128C26.1634 10.3171 25.1901 9.3475 23.9981 9.3475C22.8061 9.3475 21.8329 10.3208 21.8329 11.5128C21.8329 12.0923 22.0589 12.6355 22.4671 13.0438L29.8596 20.4399L28.3286 21.9709L20.9361 14.5747C20.1524 13.791 19.6676 12.7047 19.6676 11.5091C19.6676 9.11785 21.6069 7.17859 23.9981 7.17859C26.3894 7.17859 28.3286 9.11785 28.3286 11.5091C28.3286 12.7047 27.8438 13.7874 27.0601 14.5711L25.5291 13.0438Z" fill="#3DD2CC"/>
<path d="M25.5291 13.0437L25.8244 13.339C26.3128 12.8542 26.5826 12.198 26.5826 11.5091C26.5826 10.0838 25.4234 8.92463 23.9981 8.92463C22.5728 8.92463 21.4173 10.0838 21.4136 11.5091C21.4136 12.198 21.6834 12.8505 22.1718 13.339L29.2691 20.4399L28.3323 21.3767L21.2314 14.2795C20.5206 13.5686 20.0868 12.5917 20.0868 11.5127C20.0868 11.4034 20.043 11.294 19.9628 11.2175C19.8826 11.1409 19.7769 11.0935 19.6676 11.0935C19.5582 11.0935 19.4489 11.1373 19.3723 11.2175C19.2958 11.2977 19.2484 11.4034 19.2484 11.5127C19.2484 11.6221 19.2921 11.7315 19.3723 11.808C19.4525 11.8846 19.5582 11.9319 19.6676 11.9319C19.7769 11.9319 19.8863 11.8882 19.9628 11.808C20.0394 11.7278 20.0868 11.6221 20.0868 11.5127C20.0904 9.35112 21.8401 7.60506 23.9981 7.60142C26.1597 7.60506 27.9058 9.35477 27.9094 11.5127C27.9094 12.5954 27.472 13.5686 26.7648 14.2795L27.0601 14.5747L27.3553 14.2795L25.8244 12.7485L25.5291 13.0437L25.8244 13.339L25.5291 13.0437L25.2338 13.339L26.7648 14.87C26.8414 14.9465 26.9507 14.9939 27.0601 14.9939C27.1694 14.9939 27.2788 14.9502 27.3553 14.87C28.2156 14.0097 28.7478 12.8214 28.7478 11.5091C28.7478 8.88454 26.6227 6.75937 23.9981 6.75937C21.3735 6.75937 19.2484 8.88454 19.2484 11.5091C19.2484 11.6185 19.2921 11.7278 19.3723 11.8044C19.4525 11.8809 19.5582 11.9283 19.6676 11.9283C19.7769 11.9283 19.8863 11.8846 19.9628 11.8044C20.0394 11.7242 20.0868 11.6185 20.0868 11.5091C20.0868 11.3997 20.043 11.2904 19.9628 11.2138C19.8826 11.1373 19.7769 11.0899 19.6676 11.0899C19.5582 11.0899 19.4489 11.1336 19.3723 11.2138C19.2958 11.294 19.2484 11.3997 19.2484 11.5091C19.2484 12.8177 19.7806 14.0097 20.6409 14.87L28.037 22.2625C28.201 22.4265 28.4671 22.4265 28.6312 22.2625L30.1622 20.7315C30.2387 20.6549 30.2861 20.5456 30.2861 20.4362C30.2861 20.3269 30.2424 20.2175 30.1622 20.141L22.7624 12.7485C22.4307 12.4168 22.252 11.983 22.2484 11.5127C22.2484 10.5504 23.0321 9.76668 23.9945 9.76668C24.9568 9.76668 25.7405 10.5504 25.7405 11.5127C25.7405 11.983 25.5619 12.4168 25.2302 12.7485C25.15 12.8287 25.1062 12.9344 25.1062 13.0437C25.1062 13.1567 25.15 13.2624 25.2302 13.339L25.5291 13.0437Z" fill="#3DD2CC"/>
<path d="M32.9216 23.5018C33.3299 23.9101 33.873 24.1361 34.4526 24.1361C35.6446 24.1361 36.6179 23.1628 36.6179 21.9708C36.6179 20.7752 35.6483 19.8056 34.4563 19.8056C33.8767 19.8056 33.3336 20.0316 32.9253 20.4398L25.5291 27.8323L23.9981 26.3013L31.3943 18.9088C32.178 18.1251 33.2606 17.6403 34.4563 17.6403C36.8475 17.6403 38.7868 19.5796 38.7868 21.9745C38.7868 24.3694 36.8475 26.305 34.4563 26.305C33.2606 26.305 32.178 25.8202 31.3943 25.0364L32.9216 23.5018Z" fill="#3DD2CC"/>
<path d="M32.9216 23.5018L32.6264 23.7971C33.1112 24.2855 33.7673 24.5553 34.4563 24.5553C35.8815 24.5553 37.0407 23.3961 37.0407 21.9708C37.0407 20.5455 35.8852 19.3863 34.4599 19.3863C34.3469 19.3863 34.2412 19.4301 34.1646 19.5103C34.0844 19.5905 34.0407 19.6962 34.0407 19.8055H34.4599V19.3863C33.771 19.3863 33.1185 19.6561 32.63 20.1409L25.5291 27.2418L24.5923 26.305L31.6895 19.2041C32.4004 18.4969 33.3736 18.0595 34.4563 18.0595C34.6495 18.0595 34.8208 17.9246 34.8645 17.7351C34.9083 17.5455 34.8171 17.3487 34.6422 17.2648L34.4563 17.6403V18.0595C36.6179 18.0631 38.3639 19.8128 38.3676 21.9744C38.3639 24.1361 36.6142 25.8821 34.4563 25.8858C33.3736 25.8858 32.4004 25.4483 31.6895 24.7412L31.3943 25.0364L31.6895 25.3317L33.2205 23.8007L32.9216 23.5018L32.6264 23.7971L32.9216 23.5018L32.6264 23.2065L31.0954 24.7375C30.9313 24.9016 30.9313 25.1677 31.0954 25.3317C31.952 26.192 33.144 26.7242 34.4563 26.7242C37.0808 26.7242 39.206 24.599 39.206 21.9744C39.206 19.3499 37.0808 17.2211 34.4563 17.2211C34.2631 17.2211 34.0917 17.3559 34.048 17.5455C34.0043 17.7351 34.0954 17.9319 34.2704 18.0157L34.4563 17.6403V17.2211C33.144 17.2211 31.9556 17.7533 31.0954 18.6135L23.7029 26.0061C23.6263 26.0826 23.5789 26.192 23.5789 26.3013C23.5789 26.4107 23.6227 26.52 23.7029 26.5966L25.2339 28.1276C25.3979 28.2916 25.664 28.2916 25.828 28.1276L33.2205 20.7351C33.5559 20.4034 33.986 20.2247 34.4563 20.2247C34.5656 20.2247 34.675 20.181 34.7515 20.1008C34.8281 20.0206 34.8755 19.9149 34.8755 19.8055H34.4563V20.2247C35.4186 20.2247 36.2023 21.0085 36.1987 21.9708C36.1987 22.9331 35.415 23.7169 34.4526 23.7169C33.9824 23.7169 33.5486 23.5382 33.2169 23.2065C33.1367 23.1263 33.031 23.0826 32.9216 23.0826C32.8086 23.0826 32.7029 23.1263 32.6264 23.2065L32.9216 23.5018Z" fill="#3DD2CC"/>
<path d="M15.0711 20.4398C14.6591 20.0316 14.1197 19.8056 13.5401 19.8056C12.3444 19.8056 11.3748 20.7788 11.3748 21.9708C11.3748 23.1664 12.3444 24.1361 13.5401 24.1397C14.1197 24.1397 14.6628 23.9137 15.0711 23.5054L22.4672 16.1093L23.9982 17.6403L16.602 25.0328C15.8183 25.8165 14.7321 26.3013 13.5364 26.3013C11.1415 26.3013 9.2059 24.3621 9.2059 21.9672C9.2059 19.5759 11.1452 17.6366 13.5364 17.6366C14.7321 17.6366 15.8147 18.1215 16.5984 18.9052L15.0711 20.4398Z" fill="#3DD2CC"/>
<path d="M15.071 20.4398L15.3663 20.1446C14.8815 19.6561 14.2253 19.3864 13.5364 19.3864C12.1111 19.3864 10.9519 20.5455 10.9519 21.9708C10.9519 23.3961 12.1075 24.5553 13.5364 24.5589C13.6494 24.5589 13.7551 24.5152 13.8317 24.435C13.9119 24.3548 13.9556 24.2491 13.9556 24.1397H13.5364V24.5589C14.2253 24.5589 14.8778 24.2892 15.3663 23.8007L22.4672 16.6998L23.404 17.6366L16.3068 24.7375C15.5959 25.4447 14.619 25.8821 13.54 25.8858C13.3541 25.8858 13.1937 26.0061 13.1391 26.181C13.0844 26.356 13.1537 26.5492 13.3067 26.6513L13.54 26.305V25.8858C11.3784 25.8785 9.63237 24.1324 9.62872 21.9708C9.63237 19.8092 11.3784 18.0631 13.54 18.0595C14.6227 18.0595 15.5959 18.4969 16.3068 19.2041L16.602 18.9088L16.3068 18.6136L14.7758 20.1446L15.071 20.4398L15.3663 20.1446L15.071 20.4398L15.3663 20.7351L16.8973 19.2041C16.9775 19.1239 17.0212 19.0182 17.0212 18.9088C17.0212 18.7958 16.9775 18.6901 16.8973 18.6136C16.037 17.7569 14.8487 17.2211 13.5364 17.2247C10.9118 17.2247 8.78668 19.3499 8.78668 21.9745C8.78668 24.599 10.9118 26.7278 13.5364 26.7278C13.7223 26.7278 13.8827 26.6075 13.9374 26.4326C13.9921 26.2576 13.9228 26.0644 13.7697 25.9623L13.5364 26.3086V26.7278C14.845 26.7278 16.037 26.1956 16.8973 25.3354L24.2934 17.9428C24.4575 17.7788 24.4575 17.5127 24.2934 17.3487L22.7624 15.8177C22.5984 15.6536 22.3323 15.6536 22.1683 15.8177L14.7758 23.2065C14.4404 23.5383 14.0103 23.7169 13.54 23.7205C13.4307 23.7205 13.3213 23.7643 13.2448 23.8445C13.1682 23.9247 13.1208 24.0304 13.1208 24.1397H13.54V23.7205C12.5777 23.7205 11.794 22.9368 11.794 21.9708C11.794 21.0085 12.5777 20.2284 13.54 20.2248C14.0103 20.2248 14.4404 20.4034 14.7758 20.7351C14.9398 20.8991 15.2059 20.8991 15.3699 20.7351L15.071 20.4398Z" fill="#3DD2CC"/>
<path d="M34.4563 14.9319H34.0371H34.4563V14.5127C32.6592 14.5127 30.9569 15.1507 29.6082 16.3098L29.8816 16.627L30.1768 16.3317L29.641 15.7959L29.3457 16.0911L29.6628 16.3645C30.822 15.0158 31.4563 13.3098 31.4563 11.5127C31.4563 7.40092 28.1136 4.05461 23.9982 4.05461C19.8827 4.05461 16.54 7.40092 16.54 11.5127C16.54 13.3098 17.1816 15.0121 18.3371 16.3609L18.6543 16.0875L18.359 15.7922L17.8232 16.3281L18.1184 16.6233L18.3918 16.3062C17.0431 15.147 15.3335 14.5127 13.5364 14.5127C9.42823 14.5127 6.08191 17.8591 6.08191 21.9709C6.08191 26.0863 9.42823 29.429 13.54 29.4326C13.6494 29.4326 13.7587 29.3889 13.8353 29.3087C13.9118 29.2285 13.9592 29.1228 13.9592 29.0134H13.54V29.4326C15.3371 29.4326 17.0394 28.7947 18.3882 27.6355L18.1148 27.3184L17.8195 27.6137L18.3554 28.1495L18.6506 27.8543L18.3335 27.5809C17.1743 28.9296 16.54 30.6392 16.54 32.4326C16.54 36.5445 19.8864 39.8908 23.9982 39.8908C28.1136 39.8908 31.4563 36.5445 31.4563 32.4326C31.4563 32.3233 31.4125 32.2139 31.3324 32.1374C31.2522 32.0608 31.1464 32.0134 31.0371 32.0134V32.4326H31.4563C31.4563 30.6356 30.8184 28.9332 29.6592 27.5845L29.3421 27.8579L29.6373 28.1532L30.1732 27.6173L29.8779 27.322L29.6045 27.6392C30.9532 28.802 32.6629 29.4326 34.4599 29.4326C38.5718 29.4326 41.9181 26.0863 41.9181 21.9745C41.9181 17.8591 38.5718 14.5164 34.4599 14.5127C34.3506 14.5127 34.2412 14.5565 34.1647 14.6367C34.0881 14.7169 34.0407 14.8226 34.0407 14.9319H34.4563V15.3511C38.1052 15.3584 41.0687 18.322 41.076 21.9709C41.0687 25.6197 38.1052 28.5833 34.4563 28.5906C32.8561 28.5906 31.3506 28.0292 30.1477 26.9976C29.98 26.8555 29.7321 26.8627 29.579 27.0195L29.0432 27.5553C28.8901 27.7084 28.8791 27.96 29.0213 28.124C30.0529 29.3269 30.6179 30.8287 30.6179 32.4254C30.6179 32.5347 30.6616 32.6441 30.7418 32.7206C30.822 32.7972 30.9277 32.8446 31.0371 32.8446V32.4254H30.6179C30.6106 36.0779 27.647 39.0414 23.9982 39.0487C20.3493 39.0414 17.3821 36.0779 17.3784 32.429C17.3784 30.8287 17.9398 29.3233 18.9714 28.1204C19.1136 27.9527 19.1063 27.7048 18.9495 27.5517L18.4137 27.0158C18.2606 26.8628 18.0091 26.8518 17.845 26.994C16.6421 28.0256 15.1403 28.5906 13.5437 28.5906C13.4343 28.5906 13.325 28.6343 13.2484 28.7145C13.1719 28.7947 13.1245 28.9004 13.1245 29.0098H13.5437V28.5906C9.89117 28.5833 6.9276 25.6197 6.92031 21.9709C6.9276 18.322 9.89117 15.3584 13.54 15.3511C15.1403 15.3511 16.6458 15.9125 17.8487 16.9441C18.0164 17.0863 18.2642 17.0753 18.4173 16.9222L18.9532 16.3864C19.1063 16.2333 19.1172 15.9818 18.9751 15.8177C17.9435 14.6185 17.3784 13.113 17.3784 11.5164C17.3857 7.86386 20.3493 4.9003 23.9982 4.89301C27.647 4.9003 30.6106 7.86386 30.6179 11.5127C30.6179 13.113 30.0565 14.6221 29.0286 15.8214C28.8864 15.9891 28.8937 16.2369 29.0504 16.39L29.5863 16.9259C29.7394 17.079 29.9909 17.0899 30.1549 16.9478C31.3579 15.9162 32.8597 15.3511 34.4563 15.3511C34.5657 15.3511 34.675 15.3074 34.7516 15.2272C34.8281 15.147 34.8755 15.0413 34.8755 14.9319H34.4563V15.3511V14.9319Z" fill="#3DD2CC"/>
<path d="M22.4672 30.8943C22.0589 31.3026 21.8329 31.8457 21.8329 32.4253C21.8329 33.6173 22.8062 34.5906 23.9982 34.5906C25.1902 34.5906 26.1634 33.621 26.1634 32.4253C26.1634 31.8457 25.9374 31.3026 25.5292 30.8943L18.133 23.5018L19.664 21.9708L27.0602 29.367C27.8439 30.1507 28.3287 31.2333 28.3287 32.429C28.3287 34.8202 26.3894 36.7595 23.9982 36.7595C21.6033 36.7595 19.6677 34.8202 19.6677 32.429C19.6677 31.2333 20.1525 30.1507 20.9362 29.367L22.4672 30.8943Z" fill="#3DD2CC"/>
<path d="M22.4673 30.8944L22.172 30.5991C21.6872 31.0839 21.4138 31.7401 21.4175 32.4254C21.4175 33.8506 22.5767 35.0098 24.0019 35.0098C25.4272 35.0098 26.5864 33.8543 26.5864 32.4254C26.5864 32.3124 26.5427 32.2067 26.4625 32.1301C26.3823 32.0499 26.2766 32.0062 26.1672 32.0062V32.4254H26.5864C26.5864 31.7364 26.3167 31.0839 25.8318 30.5955L18.7273 23.5019L19.6641 22.5614L26.7614 29.6623C27.4722 30.3731 27.9096 31.3464 27.9096 32.429C27.9096 32.6259 28.0445 32.7935 28.234 32.8373C28.4236 32.881 28.6204 32.7862 28.7043 32.6113L28.3252 32.429H27.906C27.9023 34.5906 26.1526 36.3367 23.9947 36.3403C21.833 36.3367 20.087 34.587 20.0833 32.429C20.0833 31.3464 20.5208 30.3731 21.2279 29.6623L20.9327 29.367L20.6374 29.6623L22.1684 31.1933L22.4673 30.8944L22.172 30.5991L22.4673 30.8944L22.7626 30.5991L21.2316 29.0681C21.0675 28.9041 20.8014 28.9041 20.6374 29.0681C19.7771 29.9247 19.2449 31.1167 19.2449 32.429C19.2449 35.0536 21.3701 37.1787 23.9947 37.1787C26.6192 37.1787 28.7444 35.0536 28.7444 32.429C28.7444 32.2322 28.6095 32.0645 28.42 32.0207C28.2304 31.977 28.0336 32.0718 27.9497 32.2467L28.3288 32.429H28.748C28.748 31.1167 28.2158 29.9284 27.3555 29.0681L19.963 21.672C19.8828 21.5918 19.7771 21.548 19.6678 21.548C19.5548 21.548 19.4491 21.5918 19.3725 21.672L17.8415 23.203C17.6775 23.367 17.6775 23.6331 17.8415 23.7971L25.234 31.1933C25.5657 31.5286 25.7444 31.9624 25.748 32.429C25.748 32.5384 25.7917 32.6477 25.8719 32.7243C25.9521 32.8008 26.0578 32.8482 26.1672 32.8482V32.429H25.748C25.748 33.3913 24.9643 34.1714 24.0019 34.1751C23.0396 34.1751 22.2559 33.3913 22.2559 32.429C22.2559 31.9588 22.4345 31.525 22.7662 31.1933C22.9303 31.0292 22.9303 30.7631 22.7662 30.5991L22.4673 30.8944Z" fill="#3DD2CC"/>
<path d="M23.9946 26.3013L24.2899 26.0061L20.2547 21.9708L23.9946 18.2345L27.7346 21.9708L23.6994 26.0061L23.9946 26.3013L24.2899 26.0061L23.9946 26.3013L24.2899 26.5966L28.6204 22.2661C28.697 22.1895 28.7444 22.0802 28.7444 21.9708C28.7444 21.8615 28.7006 21.7521 28.6204 21.6755L24.2899 17.3414C24.1259 17.1773 23.8598 17.1773 23.6957 17.3414L19.3652 21.6719C19.2012 21.8359 19.2012 22.102 19.3652 22.2661L23.6994 26.6002C23.7759 26.6768 23.8853 26.7242 23.9946 26.7242C24.104 26.7242 24.2134 26.6804 24.2899 26.6002L23.9946 26.3013Z" fill="#3DD2CC"/>
</g>
<defs>
<filter id="filter0_d_16_2" x="0" y="0" width="47.9999" height="48" filterUnits="userSpaceOnUse" color-interpolation-filters="sRGB">
<feFlood flood-opacity="0" result="BackgroundImageFix"/>
<feColorMatrix in="SourceAlpha" type="matrix" values="0 0 0 0 0 0 0 0 0 0 0 0 0 0 0 0 0 0 127 0" result="hardAlpha"/>
<feOffset dy="2"/>
<feGaussianBlur stdDeviation="3"/>
<feComposite in2="hardAlpha" operator="out"/>
<feColorMatrix type="matrix" values="0 0 0 0 0.239216 0 0 0 0 0.823529 0 0 0 0 0.8 0 0 0 0.45 0"/>
<feBlend mode="normal" in2="BackgroundImageFix" result="effect1_dropShadow_16_2"/>
<feBlend mode="normal" in="SourceGraphic" in2="effect1_dropShadow_16_2" result="shape"/>
</filter>
</defs>
</svg>
