<svg width="175" height="175" viewBox="0 0 175 175" fill="none" xmlns="http://www.w3.org/2000/svg">
<g filter="url(#filter0_d_12_31)">
<path d="M124.868 76.7153C127.061 77.7382 129.525 77.8498 131.808 77.0187C136.518 75.3044 138.943 70.08 137.234 65.3842C135.524 60.6885 130.295 58.2498 125.599 59.9589C123.316 60.79 121.5 62.4591 120.477 64.6528L101.94 104.38L93.7138 100.544L112.251 60.8167C114.214 56.6056 117.799 53.1382 122.509 51.4238C131.929 47.9951 142.349 52.8541 145.778 62.2744C149.206 71.6946 144.347 82.1147 134.927 85.5434C130.217 87.2577 125.257 86.9002 121.046 84.9365L124.868 76.7153Z" fill="#3DD2CC"/>
<path d="M124.868 76.7152L124.128 78.3017C126.738 79.5308 129.71 79.6526 132.424 78.6648C138.039 76.6212 140.943 70.3926 138.899 64.7778C136.856 59.163 130.632 56.2729 125.012 58.3022C122.298 59.29 120.115 61.2882 118.891 63.9129L101.094 102.053L96.0598 99.7062L113.837 61.5564C115.618 57.737 118.845 54.6274 123.096 53.0803C123.526 52.9235 123.894 52.5944 124.081 52.1687C124.268 51.7431 124.303 51.2587 124.146 50.8279C123.989 50.3971 123.66 50.029 123.234 49.8424C122.809 49.6558 122.324 49.6207 121.893 49.7775C121.463 49.9343 121.095 50.2634 120.908 50.6891C120.721 51.1148 120.686 51.5992 120.843 52.03C121 52.4608 121.329 52.8289 121.755 53.0155C122.18 53.202 122.665 53.2371 123.096 53.0803C131.616 49.9953 141.004 54.3846 144.112 62.8805C147.197 71.4013 142.808 80.7886 134.312 83.8971C130.047 85.4494 125.586 85.1217 121.771 83.3551L121.032 84.9416L122.618 85.6814L126.454 77.455L124.868 76.7152L124.128 78.3017L124.868 76.7152L123.281 75.9753L119.445 84.2018C119.253 84.6131 119.223 85.1118 119.38 85.5426C119.537 85.9734 119.866 86.3415 120.292 86.5281C124.914 88.6836 130.359 89.0763 135.528 87.1947C145.868 83.4315 151.193 72.0124 147.429 61.6732C143.666 51.3339 132.247 46.0091 121.908 49.7723C121.477 49.9291 121.109 50.2582 120.922 50.6839C120.736 51.1096 120.701 51.594 120.857 52.0248C121.014 52.4556 121.343 52.8236 121.769 53.0102C122.195 53.1968 122.679 53.2319 123.11 53.0751C123.541 52.9183 123.909 52.5892 124.095 52.1635C124.282 51.7378 124.317 51.2534 124.16 50.8226C124.003 50.3918 123.674 50.0238 123.249 49.8372C122.823 49.6506 122.339 49.6155 121.908 49.7723C116.753 51.6487 112.82 55.4543 110.664 60.0768L92.147 99.8131C91.736 100.694 92.1175 101.743 92.9989 102.154L101.225 105.99C101.637 106.182 102.135 106.212 102.566 106.055C102.997 105.898 103.365 105.569 103.552 105.143L122.064 65.3925C122.895 63.6101 124.348 62.2845 126.195 61.5959C129.986 60.216 134.197 62.1797 135.577 65.9708C136.957 69.7619 134.993 73.973 131.202 75.3528C129.35 76.0271 127.385 75.9454 125.602 75.1143C125.171 74.9133 124.692 74.8926 124.261 75.0494C123.816 75.2114 123.463 75.5353 123.276 75.961L124.868 76.7152Z" fill="#3DD2CC"/>
<path d="M94.2683 120.833C93.2453 123.026 93.1338 125.49 93.9648 127.773C95.6739 132.469 100.904 134.908 105.599 133.199C110.309 131.484 112.739 126.274 111.03 121.579C110.199 119.295 108.53 117.48 106.336 116.457L66.6088 97.9197L70.4449 89.6933L110.172 108.23C114.383 110.194 117.845 113.764 119.56 118.474C122.988 127.894 118.129 138.314 108.695 141.748C99.2602 145.182 88.8545 140.318 85.4258 130.898C83.7114 126.188 84.069 121.227 86.0327 117.016L94.2683 120.833Z" fill="#3DD2CC"/>
<path d="M94.2681 120.833L92.6816 120.093C91.4525 122.703 91.3307 125.675 92.3185 128.389C94.3621 134.004 100.591 136.908 106.205 134.864C111.82 132.821 114.73 126.607 112.686 120.992C112.524 120.547 112.2 120.193 111.775 120.006C111.344 119.805 110.865 119.785 110.434 119.941L111.035 121.593L112.686 120.992C111.698 118.278 109.7 116.094 107.09 114.865L68.9351 97.073L71.2823 92.0392L109.432 109.817C113.237 111.603 116.356 114.81 117.908 119.075C118.185 119.836 118.962 120.318 119.772 120.218C120.581 120.119 121.226 119.477 121.305 118.668L119.56 118.474L117.908 119.075C120.993 127.596 116.604 136.983 108.094 140.097C99.5729 143.182 90.1856 138.792 87.0771 130.297C85.5247 126.032 85.8524 121.57 87.6191 117.756L86.0326 117.016L85.2928 118.603L93.5192 122.439L94.2681 120.833L92.6816 120.093L94.2681 120.833L95.008 119.246L86.7815 115.41C85.9001 114.999 84.8518 115.381 84.4408 116.262C82.2801 120.87 81.8926 126.329 83.7742 131.499C87.5374 141.838 98.9565 147.163 109.296 143.4C119.635 139.636 124.974 128.212 121.211 117.873C120.934 117.112 120.157 116.63 119.348 116.73C118.538 116.829 117.893 117.47 117.814 118.28L119.56 118.474L121.211 117.873C119.329 112.703 115.529 108.785 110.906 106.629L71.1846 88.1067C70.7732 87.9149 70.2745 87.885 69.8437 88.0418C69.4129 88.1986 69.0448 88.5278 68.8582 88.9534L65.0222 97.1799C64.6112 98.0613 64.9927 99.1096 65.8741 99.5206L105.596 118.043C107.384 118.889 108.704 120.327 109.378 122.18C109.535 122.61 109.864 122.978 110.29 123.165C110.716 123.352 111.2 123.387 111.631 123.23L111.03 121.578L109.378 122.18C110.758 125.971 108.794 130.182 104.998 131.547C101.207 132.927 96.9959 130.963 95.6161 127.172C94.9419 125.32 95.0235 123.355 95.8547 121.573C96.0556 121.142 96.0764 120.662 95.9196 120.232C95.7575 119.786 95.4336 119.433 95.008 119.246L94.2681 120.833Z" fill="#3DD2CC"/>
<path d="M80.7356 46.1209C81.7534 43.9128 81.8701 41.4635 81.0391 39.1802C79.3248 34.4701 74.1003 32.0459 69.4046 33.755C64.6945 35.4693 62.265 40.6794 63.965 45.3947C64.796 47.678 66.4651 49.4936 68.6588 50.5165L108.4 69.0483L104.564 77.2747L64.8371 58.7377C60.626 56.774 57.1585 53.1899 55.4442 48.4798C52.0103 39.0452 56.8745 28.6394 66.3091 25.2055C75.7293 21.7768 86.1495 26.6358 89.5781 36.056C91.2925 40.7661 90.9349 45.7262 88.9712 49.9374L80.7356 46.1209Z" fill="#3DD2CC"/>
<path d="M80.7359 46.121L82.3224 46.8608C83.5515 44.2505 83.6734 41.2789 82.6855 38.5649C80.6419 32.9501 74.4133 30.0457 68.7985 32.0893C63.1837 34.1329 60.2741 40.3471 62.3085 45.9815C62.4706 46.4267 62.7945 46.7804 63.2201 46.967C63.6511 47.1679 64.1302 47.1886 64.561 47.0318L63.96 45.3804L62.3085 45.9815C63.2964 48.6956 65.2946 50.8792 67.9192 52.1031L106.074 69.8951L103.727 74.9289L65.5771 57.1513C61.7721 55.365 58.6481 52.1437 57.0867 47.8984C56.8201 47.166 56.1163 46.7066 55.3486 46.7421C54.5809 46.7776 53.9191 47.3274 53.7366 48.0769L55.4353 48.4994L57.0867 47.8984C54.016 39.3724 58.3909 29.9903 66.9012 26.8766C75.422 23.7915 84.8041 28.1664 87.9178 36.6768C89.4701 40.9417 89.1424 45.403 87.3758 49.2172L88.9623 49.957L89.7021 48.3705L81.4757 44.5345L80.7359 46.121L82.3224 46.8608L80.7359 46.121L79.9961 47.7075L88.2225 51.5436C88.6534 51.7445 89.1326 51.7652 89.5634 51.6085C90.0085 51.4464 90.3622 51.1225 90.5488 50.6968C92.69 46.0796 93.097 40.6299 91.2011 35.4655C87.4379 25.1262 76.0188 19.8014 65.6795 23.5646C55.3403 27.3278 50.0011 38.7521 53.7643 49.0914C54.0308 49.8237 54.7347 50.2831 55.5024 50.2476C56.2701 50.2121 56.9318 49.6623 57.1144 48.9128L55.4157 48.4903L53.7643 49.0914C55.6407 54.2466 59.4463 58.1793 64.0688 60.3348L103.796 78.8718C104.677 79.2828 105.726 78.9012 106.137 78.0198L109.973 69.7934C110.384 68.912 110.002 67.8637 109.121 67.4527L69.4132 48.9248C67.6256 48.0793 66.3052 46.641 65.6166 44.7937C65.4598 44.3629 65.1307 43.9948 64.705 43.8083C64.2793 43.6217 63.7949 43.5866 63.3641 43.7434L63.9652 45.3948L65.6166 44.7937C64.2368 41.0027 66.2004 36.7915 70.0059 35.4065C73.7969 34.0266 77.9937 35.9955 79.3879 39.7814C80.0622 41.6338 79.9753 43.5844 79.1493 45.3812C78.7383 46.2626 79.1199 47.3109 80.0013 47.7219L80.7359 46.121Z" fill="#3DD2CC"/>
<path d="M130.229 114.59L129.628 112.939L130.229 114.59L131.881 113.989C129.304 106.91 124.35 101.118 117.85 97.4672L116.992 98.999L118.579 99.7388L119.921 96.8595L118.335 96.1197L117.713 97.761C124.688 100.394 132.318 100.446 139.397 97.8695C155.596 91.9739 163.985 74.0076 158.084 57.7951C152.184 41.5825 134.208 33.2124 118.01 39.108C110.93 41.6848 105.144 46.653 101.488 53.139L103.02 53.9963L103.759 52.4098L100.88 51.0672L100.14 52.6537L101.782 53.276C104.414 46.3007 104.462 38.6564 101.885 31.5768C95.9944 15.393 78.0138 7.00851 61.8156 12.9042C45.6031 18.805 37.2329 36.7805 43.1142 52.9839C43.271 53.4147 43.6001 53.7827 44.0258 53.9693C44.4515 54.1559 44.9359 54.191 45.3667 54.0342L44.7656 52.3828L43.1142 52.9839C45.691 60.0634 50.6448 65.8549 57.1452 69.5061L58.0025 67.9743L56.416 67.2345L55.0734 70.1138L56.6599 70.8536L57.2822 69.2123C50.3069 66.5796 42.6626 66.5322 35.5974 69.1038C19.3992 74.9994 11.0147 92.98 16.9104 109.178C22.8112 125.391 40.7866 133.761 56.9848 127.865C57.4156 127.708 57.7837 127.379 57.9703 126.954C58.1569 126.528 58.192 126.044 58.0352 125.613L56.3838 126.214L56.9848 127.865C64.0644 125.289 69.8559 120.335 73.507 113.834L71.9753 112.977L71.2355 114.563L74.1147 115.906L74.8545 114.32L73.2132 113.697C70.5662 120.678 70.5332 128.317 73.1099 135.396C79.0056 151.595 96.9862 159.979 113.184 154.083C129.397 148.183 137.767 130.207 131.886 114.004C131.729 113.573 131.4 113.205 130.974 113.018C130.549 112.832 130.064 112.797 129.633 112.953L130.229 114.59L128.578 115.192C133.781 129.576 126.355 145.5 111.991 150.761C97.6065 155.964 81.6825 148.539 76.4219 134.175C74.1274 127.871 74.1802 121.135 76.5194 114.917C76.839 114.053 76.4549 113.087 75.6178 112.708L72.7386 111.366C71.916 110.982 70.9094 111.3 70.4671 112.095C67.2074 117.884 62.1011 122.263 55.8114 124.552C55.3806 124.709 55.0125 125.038 54.826 125.464C54.6394 125.889 54.6043 126.374 54.7611 126.804L56.4125 126.203L55.8114 124.552C41.4122 129.76 25.4881 122.335 20.2275 107.971C15.0244 93.586 22.4446 77.6476 36.8139 72.4013C43.118 70.1068 49.8536 70.1597 56.0716 72.4988C56.936 72.8184 57.902 72.4343 58.2804 71.5973L59.623 68.718C60.0066 67.8954 59.689 66.8889 58.8938 66.4465C53.1051 63.1868 48.7259 58.0806 46.4366 51.7909C46.2798 51.3601 45.9507 50.992 45.525 50.8054C45.0993 50.6188 44.615 50.5837 44.1842 50.7405L44.7852 52.3919L46.4366 51.7909C41.2283 37.3916 48.6537 21.4676 63.0177 16.207C77.4026 11.0038 93.3267 18.4293 98.5873 32.7933C100.882 39.0974 100.829 45.833 98.4898 52.051C98.1702 52.9154 98.5687 53.8762 99.3913 54.2598L102.271 55.6024C103.093 55.986 104.1 55.6685 104.542 54.8732C107.787 49.0898 112.908 44.7053 119.198 42.4161C133.597 37.2077 149.521 44.6332 154.782 58.9972C159.985 73.3821 152.559 89.3061 138.195 94.5667C131.891 96.8612 125.141 96.8136 118.943 94.4836C118.078 94.164 117.112 94.5481 116.734 95.3851L115.391 98.2644C115.008 99.087 115.325 100.094 116.121 100.536C121.909 103.796 126.288 108.902 128.578 115.192C128.735 115.622 129.064 115.99 129.489 116.177C129.915 116.364 130.399 116.399 130.83 116.242L130.229 114.59L128.578 115.192L130.229 114.59Z" fill="#3DD2CC"/>
<path d="M50.1558 90.2476C47.9621 89.2247 45.4984 89.1131 43.2151 89.9442C38.5194 91.6533 36.0807 96.883 37.7898 101.579C39.4989 106.274 44.7143 108.718 49.4244 107.004C51.7076 106.173 53.5232 104.504 54.5462 102.31L73.0636 62.5739L81.29 66.4099L62.7582 106.151C60.7945 110.363 57.2247 113.825 52.5146 115.539C43.0944 118.968 32.6743 114.109 29.2456 104.689C25.8117 95.254 30.6759 84.8482 40.0961 81.4195C44.8062 79.7052 49.7663 80.0628 53.9775 82.0264L50.1558 90.2476Z" fill="#3DD2CC"/>
<path d="M50.1558 90.2476L50.8956 88.6611C48.2906 87.4464 45.3138 87.3102 42.6193 88.3071C37.0045 90.3507 34.1 96.5793 36.1437 102.194C38.1873 107.809 44.4015 110.719 50.0307 108.67C50.4758 108.508 50.8295 108.184 51.0161 107.758C51.2171 107.327 51.2378 106.848 51.081 106.417L49.4296 107.018L50.0307 108.67C52.7447 107.682 54.9284 105.684 56.1575 103.073L73.9155 64.9145L78.9637 67.2566L61.1665 105.397C59.3855 109.217 56.1785 112.335 51.9136 113.888C51.1381 114.17 50.671 114.942 50.7704 115.751C50.8699 116.561 51.5255 117.2 52.335 117.28L52.5094 115.525L51.9083 113.873C43.3876 116.958 34.0003 112.569 30.8918 104.073C27.8067 95.5524 32.196 86.1651 40.692 83.0566C44.9569 81.5042 49.4183 81.8319 53.2324 83.5986L53.9722 82.0121L52.3857 81.2723L48.5497 89.4987L50.1558 90.2476L50.8956 88.6611L50.1558 90.2476L51.7423 90.9874L55.5784 82.761C55.9894 81.8796 55.6078 80.8313 54.7264 80.4203C50.1183 78.2596 44.6595 77.8721 39.4898 79.7537C29.1506 83.5169 23.8258 94.936 27.589 105.275C31.3521 115.615 42.7712 120.939 53.1105 117.176C53.8859 116.894 54.3531 116.122 54.2536 115.313C54.1542 114.503 53.4986 113.864 52.6891 113.784L52.5146 115.539L53.1157 117.19C58.2853 115.309 62.2036 111.508 64.3591 106.886L82.8961 67.1588C83.0971 66.7279 83.1178 66.2488 82.961 65.818C82.799 65.3728 82.4751 65.0191 82.0494 64.8325L73.823 60.9965C72.9416 60.5854 71.8933 60.967 71.4823 61.8484L52.9453 101.576C52.0998 103.363 50.647 104.689 48.8142 105.372C48.3834 105.529 48.0153 105.858 47.8287 106.284C47.6421 106.709 47.607 107.194 47.7638 107.625L49.4152 107.024L48.8142 105.372C45.0231 106.752 40.8263 104.783 39.4321 100.997C38.0523 97.2062 40.016 92.995 43.807 91.6152C45.6595 90.9409 47.6245 91.0226 49.4069 91.8537C50.2883 92.2648 51.3365 91.8832 51.7475 91.0018L50.1558 90.2476Z" fill="#3DD2CC"/>
<path d="M70.4395 89.679L72.026 90.4188L82.1367 68.7363L102.218 78.1124L92.8618 98.2032L71.1793 88.0925L70.4395 89.679L72.026 90.4188L70.4395 89.679L69.6997 91.2655L92.9687 102.116C93.38 102.308 93.8788 102.338 94.3096 102.181C94.7404 102.024 95.1085 101.695 95.2951 101.269L106.16 77.995C106.571 77.1136 106.189 76.0654 105.308 75.6544L82.039 64.8038C81.1576 64.3928 80.1093 64.7744 79.6983 65.6558L68.8386 88.9444C68.6468 89.3557 68.6169 89.8545 68.7737 90.2853C68.9305 90.7161 69.2596 91.0842 69.6853 91.2707L70.4395 89.679Z" fill="#3DD2CC"/>
</g>
<defs>
<filter id="filter0_d_12_31" x="0" y="0" width="174.997" height="175" filterUnits="userSpaceOnUse" color-interpolation-filters="sRGB">
<feFlood flood-opacity="0" result="BackgroundImageFix"/>
<feColorMatrix in="SourceAlpha" type="matrix" values="0 0 0 0 0 0 0 0 0 0 0 0 0 0 0 0 0 0 127 0" result="hardAlpha"/>
<feOffset dy="4"/>
<feGaussianBlur stdDeviation="7.5"/>
<feComposite in2="hardAlpha" operator="out"/>
<feColorMatrix type="matrix" values="0 0 0 0 0.239216 0 0 0 0 0.823529 0 0 0 0 0.8 0 0 0 0.2 0"/>
<feBlend mode="normal" in2="BackgroundImageFix" result="effect1_dropShadow_12_31"/>
<feBlend mode="normal" in="SourceGraphic" in2="effect1_dropShadow_12_31" result="shape"/>
</filter>
</defs>
</svg>
