<svg width="409" height="143" viewBox="0 0 409 143" fill="none" xmlns="http://www.w3.org/2000/svg">
<path d="M65.7668 142.826L53.1493 142.66V62.9191L37.3023 107.845L26.6291 109.608L20 83.6159L13.693 55.3788L17.0193 82.6192L15.6065 142.185L0 141.988C0 139.308 2.36766 2.57149 2.36766 2.57149H12.7887L30.4211 80.8504L29.4624 95.414L48.7829 2.57149H62.045L65.7668 142.826ZM129.677 19.8311L132.63 64.7267L130.915 109.236L119.454 139.579L94.3738 142.826L78.0958 112.766L77.9987 39.2746C77.4865 37.3607 84.9928 9.62687 84.9928 9.62687L106.739 0L116.655 2.5261L97.6995 14.706L86.4091 39.7359L86.7623 92.8462C86.7623 92.8462 94.5868 123.971 95.3828 123.971C96.1788 123.971 105.633 132.397 105.633 132.397L115.227 124.934L122.924 98.7807L126.277 63.6431L120.455 35.2433L107.049 37.8116L98.759 66.3762L101.581 80.0114L111.458 77.6047L106.828 60.4378L113.31 58.9937C113.31 58.9937 115.957 79.9303 115.957 80.6538C115.957 81.1775 109.344 113.384 109.344 113.384L103.786 118.922L99.0237 91.004L95.0532 66.378L100.611 28.9094L119.202 9.71347L129.677 19.8311ZM192.504 1.92176L185.402 47.1569H176.619L185.064 49.3018L170.374 142.823L161.975 142.191L136.713 1.92005H152.854L163.368 84.5645L165.701 106.96L164.948 91.9538L177.753 1.91955H192.505L192.504 1.92176ZM228.559 130.11L236.695 130.149L236.128 142.825L207.26 142.775L206.612 131.435L213.784 130.958L214.533 109.454L213.078 30.0199L211.51 58.0038C211.079 43.4055 210.745 26.9475 210.528 16.3857L200.712 16.7939V2.89639L237.584 2.63833L237.018 15.7501L228.382 15.6424L228.559 130.11ZM299.307 101.095C299.87 103.02 300.096 118.424 298.966 120.346C297.841 122.271 280.185 142.591 280.185 142.591L270.664 142.783L261.916 142.818L263.748 123.957L265.033 111.423L267.525 99.7318L271.79 89.7739L282.863 96.478L286.574 113.124L279.812 119.32L275.302 118.115L281.078 112.759L273.61 103.494L269.946 120.822L270.299 127.804L273.187 131.211L279.199 130.41L288.075 121.627L292.209 105.423L285.211 91.4256L276.195 80.9975L267.412 78.9527L262.34 87.7672L259.196 111.788C259.196 111.788 257.481 141.92 257.318 141.651V141.936L250.18 142.614C249.618 142.275 250.18 2.68447 250.18 2.68447L270.464 5.08739L280.043 12.7887L289.059 31.5611L288.066 35.9741L283.614 29.6358C283.614 29.6358 273.468 17.7598 272.343 17.4403C271.217 17.1208 261.825 15.1953 261.825 15.1953L256.752 26.7473V42.1503L267.647 49.2086L276.112 44.3951L279.95 37.6754L272.436 30.4554L267.363 32.943L272.813 38.3997L269.711 42.1696L262.011 37.6606L263.42 27.5715L266.521 23.2393L278.072 29.4119L287.278 40.4017L277.792 56.59L266.521 60.9222L278.917 68.6235L289.063 75.3622C289.063 75.3622 295.028 84.8464 295.591 86.2907C296.153 87.735 298.746 99.1674 299.309 101.093L299.307 101.095ZM323.492 129.645L348.161 128.382V142.394L308.65 142.825L309.663 86.7211L306.031 2.76548L346.496 2.68463L345.405 16.3857L316.785 15.6657L325.005 17.8876L320.262 61.8125L341.047 63.0948L341.691 78.4974L326.123 79.0288L325.114 71.1964L323.492 129.645ZM393.815 21.8105L382.245 15.9815L373.997 21.2996L372.818 33.2599L374.137 40.0565C377.848 44.423 394.374 70.307 394.374 70.307L406.988 92.5378C406.988 92.5378 409.068 119.929 408.998 121.253C408.929 122.577 400.948 139.255 400.948 139.255L379.96 142.832L363.678 135.416L356.462 122.119L359.905 98.4135L377.308 90.8891L388.525 100.697L390.143 115.722L382.16 124.571L371.898 121.818L372.705 111.709L378.931 108.259L378.686 111.871L374.805 117.567L381.256 116.627L383.914 107.343L376.785 103.022L370.586 108.921L368.257 118.567L369.363 124.944L385.032 128.837L392.635 118.991L394.451 112.506L393.159 96.8223L381.675 73.4019L367.268 54.6375L359.684 30.124L364.535 9.74597L380.545 1.67092L398.981 7.57776L405.105 15.9798L405.288 33.0885L398.011 44.883L384.193 44.4517L376.998 32.422L380.056 23.9431L385.393 22.2564L392.306 27.9131L391.223 33.0885L385.028 30.3546L391.587 38.7954L396.109 33.6275L393.815 21.8105Z" fill="#3DD2CC"/>
</svg>
