<svg width="162" height="162" viewBox="0 0 162 162" fill="none" xmlns="http://www.w3.org/2000/svg">
<g filter="url(#filter0_d_9_3)">
<path d="M87.4007 39.6259C89.1096 37.917 90.0556 35.6436 90.0556 33.2176C90.0556 28.213 85.9817 24.1544 80.9924 24.1544C76.0031 24.1544 71.9293 28.2283 71.9293 33.2176C71.9293 35.6436 72.8752 37.917 74.5841 39.6259L105.527 70.5841L99.1188 76.9924L68.1758 46.0342C64.8954 42.7537 62.8661 38.2069 62.8661 33.2023C62.8661 23.1932 70.9833 15.076 80.9924 15.076C91.0016 15.076 99.1188 23.1932 99.1188 33.2023C99.1188 38.2069 97.0895 42.7385 93.809 46.0189L87.4007 39.6259Z" fill="#3DD2CC"/>
<path d="M87.4006 39.6259L88.6365 40.8618C90.6811 38.8325 91.8101 36.0861 91.8101 33.2023C91.8101 27.2365 86.9581 22.3845 80.9923 22.3845C75.0265 22.3845 70.1898 27.2365 70.1745 33.2023C70.1745 36.0861 71.3036 38.8172 73.3481 40.8618L103.055 70.5841L99.1339 74.5054L69.4116 44.7983C66.4363 41.823 64.6206 37.7339 64.6206 33.2176C64.6206 32.7599 64.4375 32.3021 64.1019 31.9817C63.7662 31.6613 63.3237 31.4629 62.866 31.4629C62.4082 31.4629 61.9505 31.646 61.6301 31.9817C61.3097 32.3174 61.1113 32.7599 61.1113 33.2176C61.1113 33.6753 61.2944 34.1331 61.6301 34.4535C61.9658 34.7739 62.4082 34.9722 62.866 34.9722C63.3237 34.9722 63.7814 34.7892 64.1019 34.4535C64.4223 34.1178 64.6206 33.6753 64.6206 33.2176C64.6359 24.1697 71.9597 16.8612 80.9923 16.8459C90.0402 16.8612 97.3487 24.1849 97.364 33.2176C97.364 37.7492 95.5331 41.823 92.573 44.7983L93.8089 46.0342L95.0448 44.7983L88.6365 38.39L87.4006 39.6259L88.6365 40.8618L87.4006 39.6259L86.1647 40.8618L92.573 47.2701C92.8934 47.5905 93.3512 47.7888 93.8089 47.7888C94.2667 47.7888 94.7244 47.6058 95.0448 47.2701C98.6457 43.6692 100.873 38.6952 100.873 33.2023C100.873 22.2167 91.978 13.3214 80.9923 13.3214C70.0067 13.3214 61.1113 22.2167 61.1113 33.2023C61.1113 33.6601 61.2944 34.1178 61.6301 34.4382C61.9658 34.7586 62.4082 34.957 62.866 34.957C63.3237 34.957 63.7814 34.7739 64.1019 34.4382C64.4223 34.1026 64.6206 33.6601 64.6206 33.2023C64.6206 32.7446 64.4375 32.2869 64.1019 31.9664C63.7662 31.646 63.3237 31.4477 62.866 31.4477C62.4082 31.4477 61.9505 31.6308 61.6301 31.9664C61.3097 32.3021 61.1113 32.7446 61.1113 33.2023C61.1113 38.6799 63.339 43.6692 66.9398 47.2701L97.898 78.213C98.5846 78.8996 99.6984 78.8996 100.385 78.213L106.793 71.8047C107.114 71.4843 107.312 71.0266 107.312 70.5688C107.312 70.1111 107.129 69.6534 106.793 69.3329L75.8199 38.39C74.4314 37.0015 73.6838 35.1859 73.6685 33.2176C73.6685 29.1895 76.949 25.9091 80.9771 25.9091C85.0051 25.9091 88.2856 29.1895 88.2856 33.2176C88.2856 35.1859 87.5379 37.0015 86.1495 38.39C85.8138 38.7257 85.6307 39.1682 85.6307 39.6259C85.6307 40.0989 85.8138 40.5414 86.1495 40.8618L87.4006 39.6259Z" fill="#3DD2CC"/>
<path d="M118.344 83.4007C120.052 85.1095 122.326 86.0555 124.752 86.0555C129.741 86.0555 133.815 81.9817 133.815 76.9924C133.815 71.9878 129.756 67.9292 124.767 67.9292C122.341 67.9292 120.068 68.8752 118.359 70.5841L87.4007 101.527L80.9924 95.1187L111.951 64.1758C115.231 60.8953 119.763 58.866 124.767 58.866C134.776 58.866 142.894 66.9832 142.894 77.0076C142.894 87.032 134.776 95.134 124.767 95.134C119.763 95.134 115.231 93.1047 111.951 89.8242L118.344 83.4007Z" fill="#3DD2CC"/>
<path d="M118.344 83.4006L117.108 84.6365C119.137 86.6811 121.883 87.8102 124.767 87.8102C130.733 87.8102 135.585 82.9582 135.585 76.9923C135.585 71.0265 130.748 66.1745 124.782 66.1745C124.309 66.1745 123.867 66.3576 123.547 66.6933C123.211 67.029 123.028 67.4714 123.028 67.9292H124.782V66.1745C121.899 66.1745 119.168 67.3036 117.123 69.3329L87.4007 99.0552L83.4794 95.1339L113.186 65.4116C116.162 62.4516 120.236 60.6207 124.767 60.6207C125.576 60.6207 126.293 60.0561 126.476 59.2627C126.659 58.4693 126.278 57.6454 125.545 57.2945L124.767 58.866V60.6207C133.815 60.6359 141.124 67.9597 141.139 77.0076C141.124 86.0555 133.8 93.364 124.767 93.3793C120.236 93.3793 116.162 91.5483 113.186 88.5883L111.951 89.8242L113.186 91.0601L119.595 84.6518L118.344 83.4006L117.108 84.6365L118.344 83.4006L117.108 82.1648L110.699 88.5731C110.013 89.2597 110.013 90.3735 110.699 91.0601C114.285 94.6609 119.274 96.8886 124.767 96.8886C135.753 96.8886 144.648 87.9933 144.648 77.0076C144.648 66.0219 135.753 57.1114 124.767 57.1114C123.958 57.1114 123.241 57.6759 123.058 58.4693C122.875 59.2627 123.257 60.0866 123.989 60.4376L124.767 58.866V57.1114C119.274 57.1114 114.3 59.339 110.699 62.9399L79.7565 93.8828C79.4361 94.2032 79.2377 94.6609 79.2377 95.1187C79.2377 95.5764 79.4208 96.0342 79.7565 96.3546L86.1648 102.763C86.8514 103.449 87.9652 103.449 88.6518 102.763L119.595 71.8199C120.998 70.4315 122.799 69.6838 124.767 69.6838C125.225 69.6838 125.683 69.5007 126.003 69.1651C126.323 68.8294 126.522 68.3869 126.522 67.9292H124.767V69.6838C128.795 69.6838 132.076 72.9643 132.06 76.9923C132.06 81.0204 128.78 84.3009 124.752 84.3009C122.784 84.3009 120.968 83.5532 119.579 82.1648C119.244 81.8291 118.801 81.646 118.344 81.646C117.871 81.646 117.428 81.8291 117.108 82.1648L118.344 83.4006Z" fill="#3DD2CC"/>
<path d="M43.6258 70.5841C41.9017 68.8752 39.6435 67.9292 37.2175 67.9292C32.2129 67.9292 28.1544 72.003 28.1544 76.9924C28.1544 81.9969 32.2129 86.0555 37.2175 86.0708C39.6435 86.0708 41.9169 85.1248 43.6258 83.4159L74.584 52.4577L80.9923 58.866L50.0341 89.809C46.7537 93.0894 42.2068 95.1187 37.2023 95.1187C27.1779 95.1187 19.0759 87.0015 19.0759 76.9771C19.0759 66.968 27.1931 58.8508 37.2023 58.8508C42.2068 58.8508 46.7384 60.8801 50.0189 64.1605L43.6258 70.5841Z" fill="#3DD2CC"/>
<path d="M43.6259 70.5841L44.8618 69.3482C42.8325 67.3036 40.0861 66.1746 37.2023 66.1746C31.2365 66.1746 26.3845 71.0266 26.3845 76.9924C26.3845 82.9582 31.2213 87.8102 37.2023 87.8255C37.6753 87.8255 38.1178 87.6424 38.4382 87.3067C38.7739 86.971 38.957 86.5285 38.957 86.0708H37.2023V87.8255C40.0861 87.8255 42.8172 86.6964 44.8618 84.6518L74.5841 54.9295L78.5054 58.8508L48.7983 88.5731C45.823 91.5331 41.7339 93.3641 37.2176 93.3793C36.4394 93.3793 35.7681 93.8828 35.5392 94.6152C35.3104 95.3476 35.6003 96.1563 36.2411 96.5835L37.2176 95.134V93.3793C28.1697 93.3488 20.8612 86.0403 20.8459 76.9924C20.8612 67.9445 28.1697 60.636 37.2176 60.6207C41.7492 60.6207 45.823 62.4516 48.7983 65.4117L50.0342 64.1758L48.7983 62.9399L42.39 69.3482L43.6259 70.5841L44.8618 69.3482L43.6259 70.5841L44.8618 71.82L51.2701 65.4117C51.6058 65.076 51.7889 64.6335 51.7889 64.1758C51.7889 63.7028 51.6058 63.2603 51.2701 62.9399C47.6692 59.3543 42.6952 57.1114 37.2023 57.1266C26.2167 57.1266 17.3214 66.022 17.3214 77.0076C17.3214 87.9933 26.2167 96.9039 37.2023 96.9039C37.9805 96.9039 38.6518 96.4004 38.8807 95.668C39.1096 94.9356 38.8197 94.127 38.1788 93.6997L37.2023 95.1492V96.9039C42.6799 96.9039 47.6692 94.6762 51.2701 91.0754L82.2283 60.1325C82.9149 59.4458 82.9149 58.332 82.2283 57.6454L75.82 51.2371C75.1334 50.5505 74.0195 50.5505 73.3329 51.2371L42.39 82.1648C40.9863 83.5533 39.1859 84.3009 37.2176 84.3162C36.7599 84.3162 36.3021 84.4993 35.9817 84.8349C35.6613 85.1706 35.4629 85.6131 35.4629 86.0708H37.2176V84.3162C33.1895 84.3162 29.9091 81.0357 29.9091 76.9924C29.9091 72.9643 33.1895 69.6991 37.2176 69.6839C39.1859 69.6839 40.9863 70.4315 42.39 71.82C43.0766 72.5066 44.1904 72.5066 44.877 71.82L43.6259 70.5841Z" fill="#3DD2CC"/>
<path d="M124.767 47.5294H123.013H124.767V45.7748C117.245 45.7748 110.12 48.4449 104.474 53.2969L105.619 54.6244L106.854 53.3885L104.612 51.1456L103.376 52.3814L104.703 53.5258C109.555 47.8804 112.21 40.7397 112.21 33.2176C112.21 16.0067 98.2185 2 80.9924 2C63.7663 2 49.7748 16.0067 49.7748 33.2176C49.7748 40.7397 52.4602 47.8651 57.2969 53.5105L58.6244 52.3662L57.3885 51.1303L55.1456 53.3732L56.3814 54.6091L57.5258 53.2817C51.8804 48.4297 44.7244 45.7748 37.2023 45.7748C20.0067 45.7748 6 59.7815 6 76.9924C6 94.2185 20.0067 108.21 37.2176 108.225C37.6753 108.225 38.133 108.042 38.4535 107.706C38.7739 107.371 38.9722 106.928 38.9722 106.471H37.2176V108.225C44.7397 108.225 51.8651 105.555 57.5105 100.703L56.3662 99.3756L55.1303 100.612L57.3732 102.854L58.6091 101.619L57.2817 100.474C52.4297 106.12 49.7748 113.276 49.7748 120.782C49.7748 137.993 63.7815 152 80.9924 152C98.2185 152 112.21 137.993 112.21 120.782C112.21 120.325 112.027 119.867 111.691 119.547C111.356 119.226 110.913 119.028 110.455 119.028V120.782H112.21C112.21 113.26 109.54 106.135 104.688 100.489L103.36 101.634L104.596 102.87L106.839 100.627L105.603 99.3909L104.459 100.718C110.104 105.586 117.26 108.225 124.782 108.225C141.993 108.225 156 94.2185 156 77.0076C156 59.7815 141.993 45.7901 124.782 45.7748C124.325 45.7748 123.867 45.9579 123.547 46.2936C123.226 46.6292 123.028 47.0717 123.028 47.5294H124.767V49.2841C140.04 49.3146 152.445 61.7193 152.475 76.9924C152.445 92.2655 140.04 104.67 124.767 104.701C118.069 104.701 111.767 102.351 106.732 98.033C106.031 97.4379 104.993 97.4684 104.352 98.1245L102.109 100.367C101.468 101.008 101.423 102.061 102.018 102.748C106.336 107.783 108.701 114.069 108.701 120.752C108.701 121.21 108.884 121.667 109.219 121.988C109.555 122.308 109.998 122.507 110.455 122.507V120.752H108.701C108.67 136.04 96.2655 148.445 80.9924 148.475C65.7193 148.445 53.2994 136.04 53.2841 120.767C53.2841 114.069 55.6338 107.767 59.9518 102.732C60.5468 102.031 60.5163 100.993 59.8602 100.352L57.6173 98.1093C56.9765 97.4684 55.9237 97.4226 55.2371 98.0177C50.202 102.336 43.9158 104.701 37.2328 104.701C36.7751 104.701 36.3174 104.884 35.997 105.219C35.6765 105.555 35.4782 105.998 35.4782 106.455H37.2328V104.701C21.9445 104.67 9.53982 92.2655 9.50931 76.9924C9.53982 61.7193 21.9445 49.3146 37.2176 49.2841C43.9158 49.2841 50.2173 51.6338 55.2524 55.9518C55.9542 56.5468 56.9918 56.5011 57.6326 55.8602L59.8755 53.6173C60.5163 52.9765 60.5621 51.9237 59.967 51.2371C55.6491 46.2173 53.2841 39.9158 53.2841 33.2328C53.3146 17.9445 65.7193 5.53982 80.9924 5.50931C96.2655 5.53982 108.67 17.9445 108.701 33.2176C108.701 39.9158 106.351 46.2325 102.048 51.2524C101.453 51.9542 101.484 52.9918 102.14 53.6326L104.383 55.8755C105.023 56.5163 106.076 56.5621 106.763 55.967C111.798 51.6491 118.084 49.2841 124.767 49.2841C125.225 49.2841 125.683 49.101 126.003 48.7653C126.323 48.4297 126.522 47.9872 126.522 47.5294H124.767V49.2841V47.5294Z" fill="#3DD2CC"/>
<path d="M74.5841 114.344C72.8752 116.052 71.9292 118.326 71.9292 120.752C71.9292 125.741 76.0031 129.815 80.9924 129.815C85.9817 129.815 90.0556 125.756 90.0556 120.752C90.0556 118.326 89.1096 116.052 87.4007 114.344L56.4425 83.4007L62.8508 76.9924L93.809 107.951C97.0894 111.231 99.1187 115.763 99.1187 120.767C99.1187 130.776 91.0016 138.894 80.9924 138.894C70.968 138.894 62.8661 130.776 62.8661 120.767C62.8661 115.763 64.8954 111.231 68.1758 107.951L74.5841 114.344Z" fill="#3DD2CC"/>
<path d="M74.5841 114.344L73.3482 113.108C71.3189 115.137 70.1746 117.883 70.1898 120.752C70.1898 126.718 75.0418 131.57 81.0076 131.57C86.9735 131.57 91.8255 126.733 91.8255 120.752C91.8255 120.279 91.6424 119.836 91.3067 119.516C90.971 119.18 90.5285 118.997 90.0708 118.997V120.752H91.8255C91.8255 117.868 90.6964 115.137 88.6671 113.092L58.9295 83.4007L62.8508 79.4642L92.5578 109.186C95.5331 112.162 97.3641 116.236 97.3641 120.767C97.3641 121.591 97.9286 122.293 98.722 122.476C99.5154 122.659 100.339 122.262 100.69 121.53L99.1035 120.767H97.3488C97.3335 129.815 90.0098 137.124 80.9771 137.139C71.9292 137.124 64.6207 129.8 64.6054 120.767C64.6054 116.236 66.4364 112.162 69.3964 109.186L68.1605 107.951L66.9246 109.186L73.3329 115.595L74.5841 114.344L73.3482 113.108L74.5841 114.344L75.82 113.108L69.4117 106.699C68.7251 106.013 67.6112 106.013 66.9246 106.699C63.3238 110.285 61.0961 115.274 61.0961 120.767C61.0961 131.753 69.9915 140.648 80.9771 140.648C91.9628 140.648 100.858 131.753 100.858 120.767C100.858 119.943 100.294 119.241 99.5002 119.058C98.7068 118.875 97.8828 119.272 97.5319 120.004L99.1187 120.767H100.873C100.873 115.274 98.6457 110.3 95.0449 106.699L64.1019 75.7412C63.7663 75.4056 63.3238 75.2225 62.866 75.2225C62.3931 75.2225 61.9506 75.4056 61.6302 75.7412L55.2219 82.1495C54.5353 82.8361 54.5353 83.95 55.2219 84.6366L86.1648 115.595C87.5533 116.998 88.3009 118.814 88.3162 120.767C88.3162 121.225 88.4993 121.683 88.8349 122.003C89.1706 122.323 89.6131 122.522 90.0708 122.522V120.767H88.3162C88.3162 124.795 85.0357 128.06 81.0076 128.076C76.9796 128.076 73.6991 124.795 73.6991 120.767C73.6991 118.799 74.4468 116.983 75.8352 115.595C76.5218 114.908 76.5218 113.794 75.8352 113.108L74.5841 114.344Z" fill="#3DD2CC"/>
<path d="M80.9771 95.1187L82.213 93.8828L65.3226 76.9924L80.9771 61.3531L96.6317 76.9924L79.7413 93.8828L80.9771 95.1187L82.213 93.8828L80.9771 95.1187L82.213 96.3546L100.339 78.2283C100.66 77.9079 100.858 77.4501 100.858 76.9924C100.858 76.5346 100.675 76.0769 100.339 75.7565L82.213 57.6149C81.5264 56.9283 80.4126 56.9283 79.726 57.6149L61.5997 75.7412C60.9131 76.4278 60.9131 77.5417 61.5997 78.2283L79.7413 96.3699C80.0617 96.6903 80.5194 96.8886 80.9771 96.8886C81.4349 96.8886 81.8926 96.7055 82.213 96.3699L80.9771 95.1187Z" fill="#3DD2CC"/>
</g>
<defs>
<filter id="filter0_d_9_3" x="0" y="0" width="162" height="162" filterUnits="userSpaceOnUse" color-interpolation-filters="sRGB">
<feFlood flood-opacity="0" result="BackgroundImageFix"/>
<feColorMatrix in="SourceAlpha" type="matrix" values="0 0 0 0 0 0 0 0 0 0 0 0 0 0 0 0 0 0 127 0" result="hardAlpha"/>
<feOffset dy="4"/>
<feGaussianBlur stdDeviation="3"/>
<feComposite in2="hardAlpha" operator="out"/>
<feColorMatrix type="matrix" values="0 0 0 0 0.239216 0 0 0 0 0.823529 0 0 0 0 0.8 0 0 0 0.2 0"/>
<feBlend mode="normal" in2="BackgroundImageFix" result="effect1_dropShadow_9_3"/>
<feBlend mode="normal" in="SourceGraphic" in2="effect1_dropShadow_9_3" result="shape"/>
</filter>
</defs>
</svg>
