<svg width="170" height="170" viewBox="0 0 170 170" fill="none" xmlns="http://www.w3.org/2000/svg">
<g filter="url(#filter0_d_12_75)">
<path d="M81.8747 118.855C80.3182 120.71 79.5725 123.062 79.7844 125.484C80.2214 130.479 84.642 134.174 89.622 133.738C94.602 133.303 98.3125 128.881 97.8768 123.901C97.665 121.479 96.5222 119.293 94.6673 117.736L61.0788 89.5381L66.9155 82.5822L100.504 110.78C104.065 113.768 106.487 118.129 106.924 123.125C107.798 133.115 100.405 141.926 90.4148 142.8C80.4244 143.674 71.6135 136.281 70.7395 126.29C70.3025 121.295 71.9322 116.595 74.9201 113.034L81.8747 118.855Z" fill="#3DD2CC"/>
<path d="M81.8751 118.856L80.5336 117.73C78.6701 119.934 77.783 122.774 78.0348 125.652C78.5558 131.607 83.8224 136.026 89.7771 135.505C95.7317 134.984 100.136 129.719 99.63 123.763C99.3782 120.884 98.0127 118.257 95.7934 116.395L63.5464 89.3223L67.1179 85.0659L99.3788 112.122C102.608 114.832 104.778 118.755 105.172 123.263C105.212 123.719 105.435 124.16 105.798 124.451C106.161 124.741 106.62 124.901 107.077 124.861C107.534 124.821 107.974 124.598 108.265 124.235C108.555 123.872 108.715 123.413 108.675 122.956C108.635 122.499 108.412 122.058 108.049 121.768C107.686 121.477 107.227 121.318 106.77 121.358C106.313 121.398 105.873 121.621 105.582 121.984C105.291 122.347 105.132 122.806 105.172 123.263C105.947 132.295 99.2751 140.229 90.2607 141.033C81.2284 141.808 73.294 135.136 72.49 126.122C72.0943 121.599 73.566 117.373 76.2607 114.144L74.9192 113.019L73.7936 114.36L80.7495 120.197L81.8751 118.856L80.5336 117.73L81.8751 118.856L83.0008 117.514L76.0449 111.677C75.6971 111.385 75.2229 111.227 74.766 111.267C74.3091 111.307 73.8682 111.53 73.5777 111.893C70.298 115.802 68.5089 120.961 68.9886 126.444C69.9479 137.409 79.6034 145.511 90.5685 144.551C101.534 143.592 109.636 133.936 108.676 122.971C108.636 122.514 108.414 122.074 108.05 121.783C107.687 121.493 107.228 121.333 106.772 121.373C106.315 121.413 105.874 121.636 105.583 121.999C105.293 122.362 105.133 122.821 105.173 123.278C105.213 123.735 105.436 124.176 105.799 124.466C106.162 124.757 106.621 124.916 107.078 124.876C107.535 124.836 107.976 124.613 108.266 124.25C108.557 123.887 108.716 123.428 108.676 122.971C108.198 117.504 105.539 112.719 101.63 109.439L68.0277 81.2573C67.2825 80.6319 66.1707 80.7292 65.5454 81.4744L59.7087 88.4304C59.4168 88.7781 59.2588 89.2523 59.2988 89.7092C59.3388 90.1661 59.5615 90.607 59.9245 90.8975L93.5421 119.078C95.0492 120.342 95.954 122.089 96.1411 124.053C96.4929 128.073 93.505 131.634 89.4845 131.986C85.464 132.337 81.9032 129.35 81.5514 125.329C81.3796 123.365 81.9672 121.487 83.2319 119.98C83.5376 119.615 83.6817 119.158 83.6417 118.701C83.6004 118.229 83.379 117.803 83.016 117.513L81.8751 118.856Z" fill="#3DD2CC"/>
<path d="M47.1674 77.8647C45.3124 76.3082 42.9607 75.5625 40.5392 75.7744C35.5592 76.2101 31.8487 80.6321 32.2844 85.6121C32.7214 90.6073 37.1269 94.3039 42.1068 93.8682C44.5283 93.6563 46.7149 92.5136 48.2713 90.6587L76.4695 57.0702L83.4255 62.9069L55.2272 96.4954C52.2394 100.056 47.8935 102.477 42.8983 102.914C32.9079 103.788 24.097 96.3953 23.2216 86.3896C22.3463 76.3839 29.7408 67.5883 39.7312 66.7143C44.7264 66.2773 49.4267 67.907 52.9875 70.8949L47.1674 77.8647Z" fill="#3DD2CC"/>
<path d="M47.1673 77.8647L48.293 76.5232C46.0889 74.6597 43.2491 73.7725 40.3707 74.0244C34.416 74.5453 29.9968 79.812 30.5178 85.7666C31.0388 91.7213 36.2902 96.1418 42.2448 95.6209C42.7169 95.5796 43.1426 95.3582 43.4331 94.9952C43.7388 94.6308 43.8829 94.1732 43.843 93.7163L42.0916 93.8695L42.2448 95.6209C45.1232 95.3691 47.7506 94.0036 49.6141 91.7996L76.6854 59.5373L80.9417 63.1088L53.8857 95.3697C51.1745 98.584 47.2681 100.767 42.745 101.163C41.9379 101.234 41.2714 101.86 41.1579 102.668C41.0445 103.476 41.4972 104.265 42.2588 104.551L42.8983 102.914L42.745 101.163C33.7127 101.938 25.7783 95.266 24.973 86.2364C24.1981 77.2041 30.87 69.2697 39.8844 68.4657C44.4075 68.0699 48.6336 69.5417 51.8618 72.2364L52.9875 70.8949L51.646 69.7692L45.8093 76.7252L47.1673 77.8647L48.293 76.5232L47.1673 77.8647L48.5088 78.9904L54.3455 72.0344C54.9709 71.2892 54.8736 70.1774 54.1284 69.5521C50.235 66.2711 45.0605 64.4833 39.5779 64.9629C28.6128 65.9222 20.5109 75.5777 21.4702 86.5428C22.4296 97.508 32.0864 105.625 43.0515 104.666C43.8586 104.595 44.5251 103.969 44.6386 103.161C44.7521 102.353 44.2994 101.564 43.5377 101.278L42.8983 102.914L43.0515 104.666C48.534 104.186 53.3043 101.528 56.584 97.6197L84.7669 64.0325C85.0588 63.6847 85.2168 63.2105 85.1768 62.7537C85.1368 62.2968 84.9141 61.8559 84.5511 61.5654L77.5952 55.7287C76.8499 55.1033 75.7381 55.2006 75.1128 55.9459L46.9298 89.533C45.65 91.0415 43.9182 91.9449 41.9536 92.1168C41.4967 92.1568 41.0558 92.3795 40.7653 92.7425C40.4748 93.1056 40.3155 93.5645 40.3555 94.0214L42.1068 93.8682L41.9536 92.1168C37.9331 92.4686 34.3723 89.4807 34.0358 85.4588C33.684 81.4383 36.6719 77.8775 40.6924 77.5258C42.657 77.3539 44.5346 77.9416 46.0417 79.2062C46.406 79.5119 46.8637 79.6561 47.3206 79.6161C47.7927 79.5748 48.2183 79.3534 48.5088 78.9904L47.1673 77.8647Z" fill="#3DD2CC"/>
<path d="M122.865 84.1326C124.735 85.6877 127.071 86.4347 129.493 86.2229C134.488 85.7859 138.183 81.3652 137.747 76.3852C137.31 71.39 132.905 67.6934 127.908 68.1152C125.487 68.3271 123.3 69.4698 121.744 71.3247L93.5471 104.928L86.5912 99.0917L114.789 65.5033C117.777 61.9425 122.138 59.5199 127.134 59.0829C137.139 58.2075 145.935 65.602 146.81 75.6077C147.684 85.5981 140.291 94.409 130.301 95.283C125.305 95.72 120.605 94.0903 117.044 91.1024L122.865 84.1326Z" fill="#3DD2CC"/>
<path d="M122.864 84.1326L121.739 85.4741C123.943 87.3376 126.782 88.2247 129.661 87.9729C135.615 87.4519 140.035 82.1853 139.514 76.2306C138.993 70.276 133.741 65.8554 127.77 66.3625C127.298 66.4038 126.872 66.6252 126.582 66.9882C126.276 67.3526 126.132 67.8102 126.172 68.2671L127.923 68.1139L127.77 66.3625C124.892 66.6143 122.264 67.9798 120.402 70.1991L93.3309 102.461L89.0746 98.8898L116.131 66.6289C118.842 63.4146 122.763 61.23 127.27 60.8204C128.047 60.7524 128.673 60.1912 128.837 59.4402C129.002 58.6892 128.642 57.9074 127.965 57.5369L127.117 59.069L127.27 60.8204C136.304 60.0607 144.237 66.7173 145.042 75.747C145.817 84.7793 139.16 92.7124 130.131 93.5177C125.607 93.9134 121.381 92.4417 118.153 89.747L117.027 91.0885L118.369 92.2141L124.206 85.2582L122.864 84.1326L121.739 85.4741L122.864 84.1326L121.523 83.0069L115.686 89.9628C115.38 90.3272 115.236 90.7848 115.276 91.2417C115.317 91.7138 115.539 92.1395 115.902 92.43C119.809 95.6944 124.97 97.4988 130.451 97.0039C141.416 96.0446 149.518 86.3891 148.559 75.424C147.599 64.4589 137.942 56.3417 126.977 57.301C126.201 57.369 125.575 57.9302 125.41 58.6812C125.246 59.4322 125.606 60.214 126.282 60.5845L127.131 59.0524L126.977 57.301C121.51 57.7794 116.725 60.4386 113.445 64.3471L85.2467 97.9356C84.6213 98.6809 84.7186 99.7926 85.4639 100.418L92.4198 106.255C93.1651 106.88 94.2768 106.783 94.9022 106.038L123.086 72.4656C124.366 70.9571 126.098 70.0537 128.061 69.8666C128.518 69.8266 128.959 69.6039 129.25 69.2408C129.54 68.8778 129.699 68.4189 129.66 67.962L127.908 68.1152L128.061 69.8666C132.082 69.5148 135.643 72.5027 135.996 76.5384C136.348 80.559 133.358 84.1045 129.339 84.4715C127.375 84.6434 125.512 84.0544 123.99 82.7911C123.245 82.1657 122.133 82.263 121.507 83.0082L122.864 84.1326Z" fill="#3DD2CC"/>
<path d="M43.8881 114.23L45.6395 114.077L43.8881 114.23L44.0414 115.981C51.5494 115.324 58.4284 112.037 63.6395 106.701L62.3814 105.476L61.2557 106.817L63.6903 108.86L64.816 107.519L63.3911 106.493C59.0411 112.551 57.0148 119.91 57.6717 127.418C59.1746 144.597 74.363 157.356 91.5569 155.851C108.751 154.347 121.493 139.145 119.99 121.966C119.333 114.458 116.031 107.581 110.71 102.368L109.485 103.626L110.826 104.752L112.869 102.317L111.528 101.192L110.501 102.616C116.56 106.966 123.934 108.991 131.442 108.335C148.606 106.833 161.363 91.6293 159.86 74.4506C158.356 57.2567 143.154 44.5145 125.974 46.0022C125.517 46.0422 125.076 46.2649 124.785 46.628C124.495 46.991 124.336 47.45 124.376 47.9068L126.127 47.7536L125.974 46.0022C118.466 46.6591 111.587 49.9465 106.376 55.2824L107.634 56.5074L108.759 55.1659L106.325 53.1231L105.199 54.4646L106.624 55.4908C110.974 49.4323 112.999 42.0579 112.343 34.5651C110.841 17.3864 95.6369 4.62901 78.4582 6.13195C61.2643 7.63622 48.5221 22.8385 50.0251 40.0172C50.065 40.4741 50.2878 40.915 50.6508 41.2055C51.0138 41.496 51.4728 41.6553 51.9297 41.6154L51.7764 39.864L50.0251 40.0172C50.6819 47.5253 53.9693 54.4042 59.3052 59.6153L60.5302 58.3572L59.1887 57.2316L57.1459 59.6662L58.4874 60.7918L59.5137 59.3669C53.4538 55.0018 46.0807 52.992 38.5727 53.6488C21.394 55.1518 8.6366 70.3554 10.1395 87.5341C11.6438 104.728 26.8461 117.47 44.0261 115.982C44.483 115.942 44.9239 115.72 45.2144 115.357C45.5049 114.994 45.6643 114.535 45.6243 114.078L43.8881 114.23L43.7349 112.478C28.4877 113.782 15.023 102.483 13.6588 87.2416C12.3556 71.9943 23.6538 58.5297 38.8957 57.1655C45.5813 56.5806 52.0762 58.3756 57.479 62.2458C58.2315 62.7785 59.2644 62.6574 59.8468 61.9466L61.8896 59.512C62.4733 58.8164 62.427 57.7616 61.7731 57.1282C57.0236 52.4796 54.1141 46.4117 53.5305 39.7412C53.4905 39.2844 53.2678 38.8435 52.9047 38.5529C52.5417 38.2624 52.0828 38.1031 51.6259 38.1431L51.7791 39.8945L53.5305 39.7412C52.2259 24.4788 63.5241 11.0141 78.766 9.64992C94.0132 8.34666 107.493 19.6435 108.842 34.8867C109.427 41.5724 107.632 48.0673 103.762 53.4701C103.229 54.2226 103.35 55.2555 104.061 55.8378L106.496 57.8807C107.191 58.4644 108.246 58.4181 108.879 57.7642C113.528 53.0146 119.596 50.1051 126.266 49.5215C126.723 49.4816 127.164 49.2588 127.455 48.8958C127.745 48.5328 127.904 48.0738 127.864 47.617L126.113 47.7702L126.266 49.5215C141.529 48.217 154.993 59.5151 156.358 74.757C157.661 90.0043 146.363 103.469 131.121 104.833C124.435 105.418 117.94 103.623 112.537 99.7528C111.785 99.2201 110.753 99.3564 110.17 100.052L108.127 102.487C107.543 103.182 107.589 104.237 108.243 104.87C112.992 109.504 115.902 115.587 116.486 122.257C117.791 137.52 106.492 150.984 91.2505 152.349C76.0033 153.652 62.5386 142.354 61.1744 127.112C60.5895 120.426 62.3832 113.916 66.2395 108.53C66.7722 107.777 66.6511 106.744 65.9403 106.162L63.5057 104.119C62.8101 103.536 61.7553 103.582 61.1219 104.236C56.4733 108.985 50.4054 111.895 43.7349 112.478C43.278 112.518 42.8372 112.741 42.5466 113.104C42.2561 113.467 42.0968 113.926 42.1368 114.383L43.8881 114.23L43.7349 112.478L43.8881 114.23Z" fill="#3DD2CC"/>
<path d="M88.1428 43.1583C89.6992 41.3034 90.4449 38.9516 90.2331 36.5302C89.7974 31.5502 85.3754 27.8397 80.3954 28.2754C75.4154 28.7111 71.7036 33.1178 72.1406 38.1131C72.3525 40.5345 73.4952 42.7211 75.3501 44.2775L108.953 72.4592L103.116 79.4151L69.5121 51.2182C65.9513 48.2304 63.5301 43.8845 63.0931 38.8893C62.219 28.8988 69.6122 20.088 79.6026 19.2139C89.6083 18.3386 98.4039 25.7331 99.2779 35.7235C99.715 40.7187 98.0852 45.419 95.0973 48.9798L88.1428 43.1583Z" fill="#3DD2CC"/>
<path d="M88.1428 43.1583L89.4843 44.2839C91.3326 42.0812 92.235 39.24 91.9693 36.3783C91.4483 30.4236 86.1817 26.0044 80.227 26.5253C74.2723 27.0463 69.8518 32.2977 70.3741 38.2676C70.4154 38.7397 70.6368 39.1653 70.9998 39.4559C71.3642 39.7616 71.8218 39.9057 72.2787 39.8657L72.1255 38.1144L70.3741 38.2676C70.6259 41.1459 71.9914 43.7734 74.1954 45.6369L106.47 72.6763L102.9 76.9479L70.653 49.8754C67.4235 47.1655 65.2402 43.2591 64.8445 38.736C64.7726 37.9136 64.1478 37.2624 63.3399 37.1489C62.532 37.0354 61.7442 37.5034 61.4579 38.265L63.1084 38.8879L64.8597 38.7347C64.0849 29.7024 70.7567 21.768 79.7711 20.964C88.8035 20.1891 96.7379 26.8609 97.5419 35.8754C97.9376 40.3985 96.4658 44.6246 93.7711 47.8528L95.1126 48.9784L96.2383 47.6369L89.2824 41.8002L88.1428 43.1583L89.4843 44.2839L88.1428 43.1583L87.0172 44.4998L93.9731 50.3365C94.7184 50.9619 95.8301 50.8646 96.4555 50.1193C99.7365 46.226 101.524 41.0515 101.045 35.5689C100.085 24.6038 90.4298 16.5019 79.4647 17.4612C68.4996 18.4205 60.3977 28.076 61.357 39.0411C61.4289 39.8635 62.0537 40.5148 62.8616 40.6282C63.6696 40.7417 64.4573 40.2738 64.7436 39.5121L63.0931 38.8892L61.3418 39.0425C61.8214 44.525 64.4793 49.2952 68.3878 52.5749L101.976 80.7731C102.341 81.0789 102.798 81.223 103.255 81.183C103.727 81.1417 104.153 80.9203 104.443 80.5573L110.28 73.6014C110.906 72.8561 110.808 71.7443 110.063 71.119L76.4745 42.9208C74.9661 41.6409 74.0613 39.8939 73.8755 37.9459C73.8355 37.489 73.6128 37.0481 73.2498 36.7576C72.8868 36.4671 72.4278 36.3078 71.9709 36.3478L72.1241 38.0991L73.8755 37.9459C73.5237 33.9254 76.5129 30.3798 80.5321 30.0128C84.5527 29.6611 88.1134 32.6489 88.4652 36.6695C88.6371 38.634 88.0494 40.5116 86.7848 42.0187C86.1594 42.764 86.2567 43.8758 87.0019 44.5011L88.1428 43.1583Z" fill="#3DD2CC"/>
<path d="M83.4407 62.9055L82.315 64.247L100.649 79.6309L86.3892 96.608L69.3983 82.365L84.7822 64.0312L83.4407 62.9055L82.315 64.247L83.4407 62.9055L82.0992 61.7799L65.5896 81.4552C65.2978 81.803 65.1398 82.2772 65.1797 82.7341C65.2197 83.1909 65.4424 83.6318 65.8055 83.9223L85.4821 100.447C86.2274 101.072 87.3391 100.975 87.9645 100.23L104.474 80.5546C105.099 79.8093 105.002 78.6976 104.257 78.0722L84.565 61.5488C84.2172 61.257 83.743 61.0989 83.2861 61.1389C82.8292 61.1789 82.3883 61.4016 82.0978 61.7646L83.4407 62.9055Z" fill="#3DD2CC"/>
</g>
<defs>
<filter id="filter0_d_12_75" x="0" y="0" width="170" height="169.999" filterUnits="userSpaceOnUse" color-interpolation-filters="sRGB">
<feFlood flood-opacity="0" result="BackgroundImageFix"/>
<feColorMatrix in="SourceAlpha" type="matrix" values="0 0 0 0 0 0 0 0 0 0 0 0 0 0 0 0 0 0 127 0" result="hardAlpha"/>
<feOffset dy="4"/>
<feGaussianBlur stdDeviation="5"/>
<feComposite in2="hardAlpha" operator="out"/>
<feColorMatrix type="matrix" values="0 0 0 0 0.239216 0 0 0 0 0.823529 0 0 0 0 0.8 0 0 0 0.2 0"/>
<feBlend mode="normal" in2="BackgroundImageFix" result="effect1_dropShadow_12_75"/>
<feBlend mode="normal" in="SourceGraphic" in2="effect1_dropShadow_12_75" result="shape"/>
</filter>
</defs>
</svg>
