<svg width="180" height="180" viewBox="0 0 180 180" fill="none" xmlns="http://www.w3.org/2000/svg">
<g filter="url(#filter0_d_12_57)">
<path d="M109.174 118.825C108.963 121.239 109.701 123.596 111.265 125.459C114.491 129.304 120.237 129.796 124.07 126.58C127.902 123.363 128.406 117.608 125.19 113.775C123.626 111.911 121.434 110.775 119.02 110.564L75.2937 106.727L76.0858 97.6735L119.812 101.51C124.446 101.915 128.936 104.1 132.162 107.945C138.614 115.634 137.611 127.102 129.922 133.554C122.233 140.005 110.765 139.002 104.313 131.313C101.087 127.469 99.7246 122.679 100.13 118.045L109.174 118.825Z" fill="#3DD2CC"/>
<path d="M109.174 118.825L107.428 118.672C107.165 121.549 108.068 124.387 109.927 126.602C113.772 131.185 120.627 131.785 125.21 127.939C129.793 124.094 130.381 117.248 126.547 112.656C124.688 110.44 122.061 109.07 119.172 108.817L77.1922 105.134L77.6769 99.5938L119.659 103.256C123.862 103.624 127.893 105.595 130.804 109.064C131.099 109.416 131.535 109.649 131.999 109.679C132.464 109.709 132.931 109.576 133.283 109.281C133.635 108.986 133.868 108.55 133.898 108.086C133.928 107.621 133.795 107.154 133.5 106.802C133.205 106.45 132.769 106.217 132.305 106.187C131.84 106.157 131.372 106.29 131.021 106.585C130.669 106.88 130.436 107.316 130.406 107.78C130.376 108.245 130.509 108.712 130.804 109.064C136.625 116.024 135.709 126.36 128.78 132.194C121.82 138.014 111.485 137.099 105.65 130.17C102.729 126.689 101.51 122.379 101.866 118.186L100.12 118.033L99.9672 119.779L109.021 120.571L109.174 118.825L107.428 118.672L109.174 118.825L109.326 117.079L100.273 116.287C99.82 116.247 99.3405 116.39 98.9889 116.685C98.6373 116.98 98.4037 117.416 98.3739 117.88C97.9288 122.967 99.4238 128.224 102.964 132.444C110.046 140.883 122.613 141.983 131.052 134.901C139.491 127.82 140.591 115.253 133.51 106.814C133.215 106.462 132.779 106.228 132.314 106.199C131.85 106.169 131.382 106.302 131.031 106.597C130.679 106.892 130.445 107.327 130.416 107.792C130.386 108.256 130.519 108.724 130.814 109.076C131.109 109.427 131.545 109.661 132.009 109.691C132.473 109.72 132.941 109.588 133.293 109.293C133.644 108.998 133.878 108.562 133.908 108.097C133.938 107.633 133.805 107.165 133.51 106.814C129.979 102.606 125.051 100.209 119.964 99.7638L76.2363 95.949C75.2663 95.8641 74.4106 96.5821 74.3258 97.5521L73.5337 106.606C73.4941 107.058 73.6368 107.538 73.9318 107.89C74.2269 108.241 74.6626 108.475 75.127 108.505L118.867 112.31C120.828 112.481 122.573 113.394 123.853 114.896C126.45 117.991 126.044 122.625 122.95 125.222C119.856 127.818 115.221 127.413 112.625 124.318C111.356 122.806 110.76 120.93 110.931 118.968C110.973 118.494 110.828 118.036 110.533 117.684C110.228 117.321 109.802 117.099 109.338 117.069L109.174 118.825Z" fill="#3DD2CC"/>
<path d="M57.186 105.143C54.7717 104.932 52.4155 105.67 50.5518 107.234C46.719 110.45 46.2155 116.206 49.4316 120.039C52.6575 123.883 58.3915 124.385 62.2243 121.169C64.0879 119.605 65.2246 117.413 65.4358 114.999L69.2722 71.2726L78.3258 72.0647L74.4894 115.791C74.084 120.425 71.9109 124.905 68.0664 128.131C60.3773 134.583 48.9094 133.58 42.4477 125.879C35.986 118.178 36.9991 106.722 44.6881 100.27C48.5327 97.0441 53.3219 95.682 57.9565 96.0875L57.186 105.143Z" fill="#3DD2CC"/>
<path d="M57.1861 105.143L57.3389 103.397C54.4621 103.134 51.6245 104.037 49.4092 105.896C44.8262 109.742 44.2265 116.597 48.0721 121.18C51.9176 125.763 58.7608 126.372 63.3437 122.527C63.7071 122.222 63.929 121.796 63.9588 121.331C64.0003 120.857 63.8557 120.399 63.5606 120.048L62.2127 121.179L63.3437 122.527C65.559 120.668 66.9293 118.04 67.1919 115.163L70.8657 73.1714L76.4056 73.656L72.7435 115.638C72.366 119.83 70.4166 123.862 66.9355 126.783C66.3142 127.304 66.1273 128.2 66.498 128.928C66.8688 129.655 67.6929 130.042 68.4818 129.84L68.0665 128.131L66.9355 126.783C59.975 132.604 49.6397 131.689 43.7958 124.748C37.9752 117.787 38.8903 107.452 45.8194 101.618C49.3005 98.6969 53.6103 97.4775 57.8039 97.8335L57.9567 96.0874L56.2106 95.9347L55.4185 104.988L57.1861 105.143L57.3389 103.397L57.1861 105.143L58.9322 105.296L59.7243 96.2421C59.8092 95.272 59.0912 94.4164 58.1212 94.3315C53.0456 93.8766 47.7769 95.3814 43.5573 98.9221C35.1181 106.003 34.0186 118.571 41.0999 127.01C48.1812 135.449 60.7584 136.56 69.1976 129.479C69.8188 128.958 70.0058 128.062 69.635 127.334C69.2642 126.607 68.4401 126.22 67.6513 126.422L68.0665 128.131L69.1976 129.479C73.4172 125.938 75.8023 121.021 76.2474 115.934L80.0721 72.2174C80.1117 71.7647 79.969 71.2852 79.6739 70.9336C79.3789 70.582 78.9432 70.3483 78.4788 70.3186L69.4251 69.5265C68.4551 69.4416 67.5994 70.1596 67.5146 71.1296L63.6899 114.846C63.5066 116.817 62.6054 118.552 61.0934 119.821C60.7417 120.116 60.5081 120.552 60.4784 121.016C60.4486 121.48 60.5814 121.948 60.8765 122.3L62.2244 121.169L61.0934 119.821C57.999 122.417 53.3644 122.012 50.7796 118.908C48.1832 115.813 48.5886 111.179 51.683 108.582C53.195 107.313 55.0718 106.717 57.0334 106.889C57.5076 106.93 57.9656 106.786 58.3172 106.491C58.6805 106.186 58.9024 105.76 58.9322 105.296L57.1861 105.143Z" fill="#3DD2CC"/>
<path d="M122.846 66.8258C125.272 67.0272 127.617 66.2983 129.48 64.7345C133.325 61.5086 133.817 55.7629 130.601 51.9301C127.375 48.0856 121.641 47.5839 117.786 50.7981C115.923 52.3619 114.786 54.5541 114.575 56.9684L110.748 100.706L101.695 99.914L105.531 56.188C105.936 51.5534 108.121 47.0636 111.966 43.8377C119.667 37.376 131.123 38.3891 137.585 46.0899C144.036 53.7789 143.033 65.2469 135.344 71.6987C131.5 74.9247 126.71 76.2868 122.076 75.8813L122.846 66.8258Z" fill="#3DD2CC"/>
<path d="M122.846 66.8258L122.693 68.5719C125.57 68.8345 128.408 67.9315 130.623 66.0726C135.206 62.2271 135.806 55.3722 131.96 50.7892C128.114 46.2063 121.271 45.5967 116.667 49.4404C116.303 49.7453 116.082 50.1712 116.052 50.6356C116.01 51.1098 116.155 51.5677 116.45 51.9194L117.798 50.7883L116.667 49.4404C114.451 51.2992 113.081 53.9271 112.828 56.8156L109.155 98.8073L103.615 98.3226L107.277 56.3408C107.654 52.149 109.615 48.1067 113.075 45.1837C113.673 44.6821 113.864 43.8626 113.568 43.1525C113.271 42.4423 112.527 42.008 111.76 42.0929L111.944 43.8358L113.075 45.1837C120.045 39.3749 130.371 40.2783 136.215 47.2191C142.035 54.1795 141.132 64.505 134.191 70.349C130.71 73.27 126.4 74.4895 122.207 74.1334L122.054 75.8795L123.8 76.0322L124.592 66.9786L122.846 66.8258L122.693 68.5719L122.846 66.8258L121.1 66.6731L120.308 75.7267C120.266 76.201 120.411 76.6589 120.706 77.0105C121.011 77.3739 121.437 77.5958 121.901 77.6255C126.979 78.0589 132.245 76.5756 136.455 73.0233C144.894 65.9419 145.994 53.3746 138.912 44.9354C131.831 36.4962 119.254 35.385 110.815 42.4663C110.217 42.9679 110.026 43.7875 110.322 44.4976C110.618 45.2077 111.362 45.6421 112.13 45.5572L111.946 43.8143L110.815 42.4663C106.607 45.9972 104.21 50.9245 103.765 56.0118L99.9286 99.7378C99.8437 100.708 100.562 101.563 101.532 101.648L110.585 102.44C111.555 102.525 112.411 101.807 112.496 100.837L116.33 57.1329C116.514 55.1614 117.415 53.4265 118.917 52.1461C119.269 51.851 119.502 51.4153 119.532 50.9509C119.562 50.4865 119.429 50.0187 119.134 49.6671L117.786 50.7982L118.917 52.1461C122.011 49.5496 126.646 49.9551 129.252 53.0612C131.849 56.1555 131.434 60.7784 128.349 63.3866C126.837 64.6554 124.972 65.2416 122.999 65.0798C122.029 64.9949 121.173 65.7129 121.088 66.6829L122.846 66.8258Z" fill="#3DD2CC"/>
<path d="M75.3741 136.84L76.722 135.709L75.3741 136.84L76.5052 138.188C82.2837 133.339 86.0363 126.695 87.2455 119.329L85.5108 119.046L85.358 120.792L88.5268 121.07L88.6795 119.324L86.9221 119.3C86.8339 126.765 89.3972 133.961 94.246 139.74C105.34 152.961 125.117 154.702 138.35 143.599C151.583 132.495 153.303 112.716 142.209 99.4944C137.36 93.7159 130.704 89.9731 123.349 88.7541L123.067 90.4888L124.813 90.6416L125.091 87.4728L123.345 87.32L123.321 89.0774C130.786 89.1657 137.994 86.5925 143.773 81.7437C156.982 70.6595 158.714 50.8708 147.619 37.6494C136.516 24.4163 116.737 22.6967 103.505 33.7791C103.154 34.0742 102.92 34.5099 102.89 34.9743C102.861 35.4387 102.994 35.9064 103.289 36.2581L104.637 35.127L103.505 33.7791C97.727 38.6278 93.9744 45.2721 92.7652 52.6384L94.4999 52.9205L94.6527 51.1744L91.4839 50.8972L91.3311 52.6432L93.0885 52.6667C93.1768 45.2023 90.6036 37.9938 85.7647 32.227C74.6706 19.0056 54.8819 17.2743 41.6605 28.3684C28.4274 39.4723 26.7078 59.2511 37.8019 72.4725C38.097 72.8241 38.5327 73.0578 38.9971 73.0875C39.4615 73.1173 39.9293 72.9844 40.2809 72.6894L39.1498 71.3415L37.8019 72.4725C42.6507 78.251 49.2949 82.0036 56.6612 83.2128L56.9433 81.4781L55.1972 81.3253L54.92 84.4941L56.6661 84.6469L56.6895 82.8895C49.2153 82.7895 42.0166 85.3744 36.2381 90.2232C23.0167 101.317 21.2854 121.106 32.3795 134.327C43.4834 147.56 63.2622 149.28 76.4934 138.198C76.8451 137.903 77.0787 137.467 77.1085 137.002C77.1382 136.538 77.0054 136.07 76.7103 135.719L75.3741 136.84L74.2431 135.492C62.4906 145.314 44.9653 143.78 35.0969 132.067C25.2753 120.315 26.8086 102.789 38.5217 92.9209C43.6673 88.6033 50.0227 86.3464 56.674 86.4178C57.5968 86.4226 58.3742 85.7303 58.4435 84.8132L58.7207 81.6445C58.8 80.7391 58.1565 79.9008 57.2568 79.757C50.6941 78.6723 44.8253 75.3677 40.5174 70.2339C40.2224 69.8822 39.7867 69.6486 39.3223 69.6188C38.8579 69.5891 38.3901 69.7219 38.0385 70.017L39.1695 71.3649L40.5174 70.2339C30.686 58.4696 32.2193 40.9444 43.9325 31.0759C55.685 21.2544 73.2219 22.7778 83.0787 34.5008C87.3963 39.6463 89.6532 46.0018 89.5817 52.6531C89.577 53.5758 90.2692 54.3532 91.1863 54.4226L94.3551 54.6998C95.2605 54.779 96.0987 54.1356 96.2426 53.2359C97.3272 46.6732 100.632 40.8043 105.766 36.4965C106.117 36.2015 106.351 35.7657 106.381 35.3013C106.41 34.8369 106.278 34.3692 105.983 34.0175L104.635 35.1486L105.766 36.4965C117.53 26.6651 135.055 28.1984 144.924 39.9115C154.745 51.664 153.212 69.1893 141.499 79.0577C136.353 83.3754 129.998 85.6322 123.346 85.5608C122.424 85.5561 121.656 86.26 121.577 87.1654L121.3 90.3342C121.221 91.2395 121.864 92.0778 122.764 92.2217C129.317 93.2946 135.195 96.6109 139.503 101.745C149.334 113.509 147.801 131.034 136.088 140.903C124.336 150.724 106.81 149.191 96.9418 137.478C92.6242 132.332 90.3575 125.965 90.4271 119.335C90.4318 118.413 89.7395 117.635 88.8225 117.566L85.6537 117.289C84.7483 117.209 83.91 117.853 83.7662 118.753C82.6816 125.315 79.3769 131.184 74.2431 135.492C73.8914 135.787 73.6578 136.223 73.6281 136.687C73.5983 137.152 73.7311 137.619 74.0262 137.971L75.3741 136.84L74.2431 135.492L75.3741 136.84Z" fill="#3DD2CC"/>
<path d="M70.8567 53.1653C71.068 50.751 70.3292 48.3948 68.7654 46.5311C65.5493 42.6983 59.7938 42.1948 55.961 45.4109C52.1282 48.627 51.6148 54.3708 54.8408 58.2153C56.4045 60.0789 58.5967 61.2156 61.011 61.4268L104.739 65.2417L103.947 74.2953L60.2091 70.4687C55.5745 70.0633 51.0945 67.8902 47.8686 64.0456C41.4167 56.3566 42.42 44.8887 50.1091 38.4368C57.8098 31.9751 69.2661 32.9882 75.7179 40.6773C78.9439 44.5218 80.306 49.311 79.9005 53.9456L70.8567 53.1653Z" fill="#3DD2CC"/>
<path d="M70.8568 53.1653L72.6029 53.318C72.8537 50.451 71.9624 47.6036 70.1017 45.4099C66.2562 40.8269 59.4013 40.2272 54.8183 44.0727C50.2354 47.9183 49.6258 54.7615 53.4812 59.3562C53.7861 59.7195 54.212 59.9414 54.6764 59.9712C55.1506 60.0127 55.6085 59.8681 55.9602 59.573L54.8291 58.2251L53.4812 59.3562C55.34 61.5714 57.9679 62.9417 60.8447 63.2043L102.828 66.8448L102.354 72.3965L60.3736 68.7128C56.1702 68.3451 52.1376 66.3958 49.2166 62.9146C48.6855 62.2817 47.7994 62.1064 47.0719 62.4772C46.3444 62.8479 45.9671 63.6838 46.1696 64.4726L47.8804 64.0358L49.2283 62.9048C43.4078 55.9443 44.3229 45.609 51.2519 39.7749C58.2124 33.9543 68.5477 34.8694 74.3818 41.7985C77.3028 45.2796 78.5223 49.5894 78.1663 53.783L79.9123 53.9358L80.0651 52.1897L71.0115 51.3977L70.8568 53.1653L72.6029 53.318L70.8568 53.1653L70.704 54.9113L79.7577 55.7034C80.7277 55.7883 81.5834 55.0703 81.6682 54.1003C82.1231 49.0247 80.6183 43.756 77.0777 39.5364C69.9963 31.0972 57.429 29.9977 48.9898 37.079C40.5506 44.1603 39.4511 56.7277 46.5325 65.1669C47.0636 65.7998 47.9497 65.9751 48.6772 65.6043C49.4047 65.2335 49.7819 64.3977 49.5794 63.6088L47.8687 64.0456L46.5207 65.1767C50.0614 69.3963 54.9789 71.7814 60.0662 72.2265L103.792 76.0629C104.266 76.1044 104.724 75.9598 105.076 75.6648C105.439 75.3599 105.661 74.934 105.691 74.4696L106.483 65.416C106.568 64.4459 105.85 63.5903 104.88 63.5054L61.154 59.669C59.1825 59.4857 57.4378 58.5728 56.1672 57.0823C55.8721 56.7307 55.4364 56.4971 54.972 56.4673C54.5076 56.4376 54.0399 56.5704 53.6882 56.8655L54.8193 58.2134L56.1672 57.0823C53.5707 53.988 53.986 49.3651 57.0706 46.7569C60.1649 44.1604 64.7995 44.5659 67.396 47.6602C68.6648 49.1723 69.2608 51.049 69.0892 53.0106C69.0043 53.9807 69.7223 54.8363 70.6923 54.9212L70.8568 53.1653Z" fill="#3DD2CC"/>
<path d="M78.3379 72.0548L78.1851 73.8009L102.048 75.8886L100.103 97.9936L77.9962 96.0704L80.084 72.2076L78.3379 72.0548L78.1851 73.8009L78.3379 72.0548L76.5918 71.9021L74.3514 97.5109C74.3117 97.9636 74.4544 98.4431 74.7495 98.7947C75.0445 99.1464 75.4803 99.38 75.9447 99.4097L101.563 101.662C102.533 101.747 103.389 101.029 103.474 100.059L105.714 74.45C105.799 73.4799 105.081 72.6243 104.111 72.5394L78.4808 70.297C78.0281 70.2574 77.5486 70.4001 77.197 70.6952C76.8454 70.9902 76.6118 71.4259 76.582 71.8903L78.3379 72.0548Z" fill="#3DD2CC"/>
</g>
<defs>
<filter id="filter0_d_12_57" x="0" y="0" width="180" height="179.993" filterUnits="userSpaceOnUse" color-interpolation-filters="sRGB">
<feFlood flood-opacity="0" result="BackgroundImageFix"/>
<feColorMatrix in="SourceAlpha" type="matrix" values="0 0 0 0 0 0 0 0 0 0 0 0 0 0 0 0 0 0 127 0" result="hardAlpha"/>
<feOffset dy="4"/>
<feGaussianBlur stdDeviation="12.5"/>
<feComposite in2="hardAlpha" operator="out"/>
<feColorMatrix type="matrix" values="0 0 0 0 0.239216 0 0 0 0 0.823529 0 0 0 0 0.8 0 0 0 0.2 0"/>
<feBlend mode="normal" in2="BackgroundImageFix" result="effect1_dropShadow_12_57"/>
<feBlend mode="normal" in="SourceGraphic" in2="effect1_dropShadow_12_57" result="shape"/>
</filter>
</defs>
</svg>
