<svg width="188" height="188" viewBox="0 0 188 188" fill="none" xmlns="http://www.w3.org/2000/svg">
<g filter="url(#filter0_d_12_44)">
<path d="M128.621 105.916C129.836 108.019 131.797 109.529 134.153 110.161C139.012 111.463 144.013 108.563 145.311 103.718C146.609 98.8741 143.713 93.8586 138.869 92.5606C136.513 91.9294 134.06 92.2565 131.956 93.4711L93.8464 115.461L89.2914 107.572L127.401 85.5817C131.44 83.25 136.382 82.4626 141.242 83.7646C150.96 86.3687 156.73 96.3619 154.126 106.08C151.522 115.799 141.528 121.569 131.81 118.964C126.951 117.662 123.079 114.513 120.747 110.474L128.621 105.916Z" fill="#3DD2CC"/>
<path d="M128.622 105.915L127.1 106.794C128.539 109.307 130.912 111.118 133.712 111.868C139.504 113.42 145.478 109.971 147.03 104.179C148.582 98.3863 145.129 92.4277 139.341 90.8608C136.541 90.1105 133.595 90.4963 131.078 91.9495L94.4899 113.061L91.7027 108.233L128.28 87.1031C131.943 84.9883 136.386 84.2892 140.771 85.4642C141.215 85.5833 141.707 85.5246 142.106 85.2821C142.504 85.0395 142.812 84.6615 142.931 84.217C143.05 83.7726 142.991 83.2805 142.749 82.8821C142.506 82.4836 142.128 82.1759 141.684 82.0568C141.239 81.9378 140.747 81.9964 140.349 82.239C139.95 82.4816 139.643 82.8596 139.523 83.304C139.404 83.7485 139.463 84.2405 139.706 84.639C139.948 85.0374 140.326 85.3451 140.771 85.4642C149.552 87.833 154.743 96.8455 152.408 105.62C150.039 114.401 141.026 119.592 132.252 117.257C127.852 116.078 124.373 113.24 122.254 109.592L120.732 110.47L121.611 111.992L129.5 107.437L128.622 105.915L127.1 106.794L128.622 105.915L127.743 104.394L119.854 108.949C119.46 109.177 119.148 109.569 119.029 110.014C118.91 110.458 118.968 110.95 119.211 111.349C121.77 115.782 126.02 119.239 131.354 120.668C142.02 123.526 152.972 117.203 155.83 106.537C158.688 95.8702 152.365 84.9189 141.699 82.0608C141.254 81.9417 140.762 82.0004 140.364 82.243C139.965 82.4855 139.657 82.8636 139.538 83.308C139.419 83.7524 139.478 84.2445 139.72 84.643C139.963 85.0414 140.341 85.3491 140.785 85.4682C141.23 85.5873 141.722 85.5286 142.12 85.286C142.519 85.0435 142.827 84.6655 142.946 84.221C143.065 83.7766 143.006 83.2845 142.764 82.886C142.521 82.4876 142.143 82.1799 141.699 82.0608C136.38 80.6357 130.956 81.5006 126.523 84.0601L88.4243 106.069C87.579 106.557 87.2892 107.638 87.7772 108.484L92.3322 116.373C92.5599 116.768 92.9528 117.079 93.3972 117.198C93.8416 117.317 94.3337 117.259 94.7322 117.016L132.835 94.9926C134.544 94.0057 136.502 93.7521 138.417 94.2494C142.328 95.2974 144.66 99.336 143.612 103.247C142.564 107.158 138.525 109.49 134.614 108.442C132.703 107.93 131.134 106.732 130.147 105.022C129.909 104.609 129.527 104.316 129.082 104.197C128.623 104.074 128.146 104.137 127.747 104.379L128.622 105.915Z" fill="#3DD2CC"/>
<path d="M78.0677 124.571C75.9638 125.786 74.4538 127.747 73.8227 130.103C72.5246 134.947 75.4203 139.962 80.2647 141.26C85.1239 142.562 90.1206 139.678 91.4186 134.833C92.0498 132.478 91.7228 130.024 90.5081 127.92L68.5181 89.8108L76.4075 85.2558L98.3975 123.365C100.729 127.404 101.521 132.332 100.219 137.191C97.6145 146.91 87.6213 152.679 77.888 150.071C68.1547 147.463 62.3999 137.474 65.0039 127.755C66.3059 122.896 69.4553 119.024 73.4939 116.692L78.0677 124.571Z" fill="#3DD2CC"/>
<path d="M78.0676 124.571L77.1891 123.049C74.676 124.488 72.8652 126.861 72.1149 129.661C70.5628 135.453 74.0116 141.427 79.8041 142.979C85.5967 144.531 91.5662 141.097 93.1183 135.305C93.2413 134.845 93.1787 134.368 92.9361 133.97C92.6975 133.556 92.3155 133.263 91.8711 133.144L91.4146 134.848L93.1183 135.305C93.8685 132.505 93.4828 129.559 92.0444 127.046L70.918 90.4539L75.7456 87.6666L96.8759 124.244C98.9759 127.903 99.6938 132.335 98.5148 136.735C98.3044 137.52 98.666 138.363 99.3887 138.747C100.111 139.131 101.011 138.975 101.542 138.356L100.219 137.191L98.5148 136.735C96.146 145.516 87.1335 150.707 78.3444 148.368C69.5632 145.999 64.3724 136.986 66.7075 128.212C67.8865 123.812 70.7242 120.333 74.3723 118.214L73.4939 116.692L71.9723 117.571L76.5273 125.46L78.0676 124.571L77.1891 123.049L78.0676 124.571L79.5891 123.693L75.0342 115.803C74.5461 114.958 73.4647 114.668 72.6194 115.156C68.1902 117.701 64.7292 121.966 63.3001 127.299C60.442 137.966 66.7648 148.917 77.4314 151.775C88.098 154.633 99.0641 148.314 101.922 137.648C102.133 136.862 101.771 136.019 101.048 135.635C100.326 135.251 99.4263 135.407 98.8951 136.027L100.219 137.191L101.922 137.648C103.351 132.314 102.482 126.905 99.923 122.472L77.929 84.3774C77.7012 83.9829 77.3084 83.6712 76.864 83.5521C76.4195 83.433 75.9274 83.4917 75.529 83.7343L67.6396 88.2892C66.7943 88.7773 66.5045 89.8588 66.9925 90.7041L88.9865 128.799C89.9694 130.523 90.2269 132.466 89.7149 134.377C89.5958 134.821 89.6545 135.313 89.897 135.712C90.1396 136.11 90.5176 136.418 90.9621 136.537L91.4186 134.833L89.7149 134.377C88.6669 138.288 84.6282 140.619 80.7211 139.557C76.81 138.509 74.4783 134.47 75.5263 130.559C76.0384 128.648 77.2367 127.079 78.9461 126.093C79.3593 125.854 79.6522 125.472 79.7713 125.028C79.8944 124.568 79.8317 124.091 79.5891 123.693L78.0676 124.571Z" fill="#3DD2CC"/>
<path d="M109.951 55.3576C112.059 54.1281 113.565 52.1816 114.196 49.8261C115.498 44.9668 112.599 39.9662 107.754 38.6682C102.895 37.3661 97.8986 40.2509 96.5817 45.1062C95.9506 47.4618 96.2776 49.9153 97.4923 52.0191L119.497 90.1326L111.608 94.6876L89.6176 56.5781C87.2859 52.5394 86.4985 47.5967 87.8005 42.7374C90.4086 33.0041 100.398 27.2493 110.131 29.8573C119.85 32.4614 125.619 42.4547 123.015 52.1732C121.713 57.0324 118.564 60.9044 114.525 63.2361L109.951 55.3576Z" fill="#3DD2CC"/>
<path d="M109.951 55.3576L110.83 56.8792C113.343 55.4407 115.154 53.0678 115.904 50.2678C117.456 44.4752 114.007 38.5018 108.215 36.9497C102.422 35.3976 96.4527 38.8315 94.8818 44.635C94.7587 45.0942 94.8214 45.5715 95.064 45.9699C95.3025 46.3832 95.6845 46.6761 96.129 46.7952L96.5855 45.0915L94.8818 44.635C94.1315 47.4349 94.5173 50.3805 95.9705 52.8976L117.097 89.4896L112.269 92.2768L91.139 55.6997C89.039 52.0407 88.325 47.594 89.4852 43.2048C89.6877 42.4493 89.3735 41.6664 88.7219 41.2537C88.0703 40.8409 87.2097 40.912 86.6282 41.4231L87.7815 42.7483L89.4852 43.2048C91.8688 34.4276 100.867 29.2328 109.656 31.5719C118.437 33.9407 123.632 42.9384 121.293 51.7276C120.114 56.1276 117.276 59.6067 113.628 61.7255L114.506 63.247L116.028 62.3686L111.473 54.4792L109.951 55.3576L110.83 56.8792L109.951 55.3576L108.43 56.2361L112.985 64.1255C113.223 64.5388 113.605 64.8317 114.05 64.9507C114.509 65.0738 114.986 65.0111 115.385 64.7686C119.803 62.2052 123.275 57.9591 124.689 52.6218C127.547 41.9552 121.224 31.0039 110.558 28.1458C99.8912 25.2877 88.9251 31.6064 86.067 42.273C85.8645 43.0286 86.1788 43.8114 86.8303 44.2242C87.4819 44.637 88.3425 44.5659 88.924 44.0548L87.7707 42.7295L86.067 42.273C84.6419 47.5915 85.5068 53.0155 88.0663 57.4486L110.056 95.5581C110.544 96.4034 111.626 96.6932 112.471 96.2052L120.361 91.6502C121.206 91.1622 121.496 90.0807 121.008 89.2354L99.0284 51.1447C98.0455 49.4205 97.7879 47.4778 98.2852 45.5628C98.4043 45.1183 98.3456 44.6263 98.103 44.2278C97.8605 43.8294 97.4825 43.5217 97.038 43.4026L96.5815 45.1063L98.2852 45.5628C99.3332 41.6517 103.372 39.32 107.298 40.3719C111.209 41.4199 113.526 45.4546 112.493 49.3696C111.98 51.2807 110.786 52.8344 109.073 53.8361C108.228 54.3241 107.938 55.4056 108.426 56.2509L109.951 55.3576Z" fill="#3DD2CC"/>
<path d="M111.226 140.141L111.683 138.437L111.226 140.141L112.93 140.597C114.887 133.293 114.148 125.68 110.906 118.936L109.319 119.702L110.197 121.224L112.959 119.629L112.08 118.108L110.624 119.099C114.843 125.279 121.086 129.714 128.389 131.672C145.1 136.149 162.34 126.208 166.822 109.482C171.304 92.7565 161.344 75.5272 144.633 71.0495C137.329 69.0925 129.712 69.8461 122.972 73.0736L123.738 74.6602L125.26 73.7818L123.665 71.0205L122.144 71.8989L123.135 73.3554C129.315 69.1363 133.754 62.8788 135.711 55.5752C140.185 38.8789 130.229 21.6349 113.518 17.1572C96.7923 12.6755 79.563 22.6353 75.0705 39.3424C74.9514 39.7868 75.0101 40.2789 75.2527 40.6774C75.4952 41.0758 75.8733 41.3835 76.3177 41.5026L76.7742 39.7989L75.0705 39.3424C73.1135 46.6461 73.8523 54.2592 77.0946 61.003L78.6812 60.2373L77.8028 58.7158L75.0415 60.31L75.9199 61.8315L77.3764 60.8404C73.1572 54.6605 66.8998 50.221 59.611 48.268C42.8999 43.7903 25.6559 53.7461 21.1782 70.4572C16.6965 87.183 26.6563 104.412 43.3674 108.89C43.8118 109.009 44.3039 108.95 44.7023 108.708C45.1008 108.465 45.4085 108.087 45.5276 107.643L43.8239 107.186L43.3674 108.89C50.671 110.847 58.2842 110.108 65.028 106.866L64.2623 105.279L62.7407 106.158L64.335 108.919L65.8565 108.041L64.8653 106.584C58.6707 110.799 54.246 117.061 52.289 124.364C47.8112 141.075 57.7671 158.319 74.4781 162.797C91.204 167.279 108.433 157.319 112.926 140.612C113.045 140.167 112.986 139.675 112.744 139.277C112.501 138.878 112.123 138.571 111.679 138.452L111.226 140.141L109.522 139.684C105.519 154.506 90.2475 163.323 75.4099 159.379C60.5883 155.376 51.7712 140.104 55.7151 125.266C57.4578 118.763 61.3787 113.256 66.8813 109.49C67.6416 108.963 67.8819 107.948 67.4116 107.155L65.8174 104.394C65.3619 103.605 64.3516 103.287 63.5301 103.686C57.5178 106.568 50.7989 107.229 44.31 105.49C43.8656 105.371 43.3735 105.43 42.975 105.673C42.5766 105.915 42.2689 106.293 42.1498 106.738L43.8535 107.194L44.31 105.49C29.4735 101.483 20.6564 86.2116 24.6004 71.3741C28.6036 56.5525 43.8792 47.7206 58.7128 51.6793C65.2165 53.422 70.7236 57.3429 74.4891 62.8455C75.0158 63.6058 76.0311 63.8461 76.824 63.3758L79.5853 61.7816C80.3743 61.3261 80.6926 60.3158 80.2935 59.4943C77.4109 53.482 76.7501 46.7631 78.4887 40.2742C78.6078 39.8298 78.5491 39.3377 78.3066 38.9392C78.064 38.5408 77.686 38.2331 77.2416 38.114L76.7851 39.8177L78.4887 40.2742C82.4959 25.4377 97.7676 16.6206 112.605 20.5646C127.427 24.5678 136.244 39.8395 132.3 54.677C130.557 61.1807 126.636 66.6878 121.134 70.4533C120.373 70.98 120.148 71.9993 120.603 72.7882L122.198 75.5495C122.653 76.3385 123.663 76.6568 124.485 76.2577C130.482 73.3711 137.216 72.7143 143.705 74.4529C158.542 78.4601 167.359 93.7318 163.415 108.569C159.411 123.391 144.14 132.208 129.302 128.264C122.799 126.521 117.277 122.597 113.522 117.113C112.995 116.352 111.98 116.112 111.187 116.582L108.426 118.177C107.637 118.632 107.318 119.642 107.718 120.464C110.6 126.476 111.261 133.195 109.522 139.684C109.403 140.129 109.462 140.621 109.705 141.019C109.947 141.417 110.325 141.725 110.77 141.844L111.226 140.141L109.522 139.684L111.226 140.141Z" fill="#3DD2CC"/>
<path d="M59.4081 74.032C58.1934 71.9281 56.2322 70.4181 53.8766 69.787C49.0322 68.4889 44.0168 71.3846 42.7187 76.229C41.4206 81.0734 44.3015 86.0849 49.1607 87.3869C51.5163 88.0181 53.9698 87.691 56.0736 86.4764L94.1723 64.4676L98.7272 72.357L60.6138 94.3618C56.5751 96.6935 51.6472 97.4849 46.788 96.1829C37.0695 93.5788 31.2998 83.5856 33.9039 73.8671C36.5119 64.1338 46.5012 58.379 56.2197 60.983C61.079 62.2851 64.951 65.4344 67.2827 69.473L59.4081 74.032Z" fill="#3DD2CC"/>
<path d="M59.408 74.0319L60.9295 73.1535C59.4871 70.6552 57.1182 68.8295 54.329 68.0981C48.5365 66.5459 42.563 69.9947 41.0109 75.7873C39.4588 81.5798 42.8927 87.5493 48.7001 89.1054C49.1594 89.2284 49.6366 89.1658 50.0351 88.9232C50.4483 88.6846 50.7412 88.3026 50.8603 87.8582L49.1566 87.4017L48.7001 89.1054C51.5001 89.8556 54.4457 89.4699 56.9589 88.0315L93.5251 66.8824L96.3271 71.7139L59.7392 92.8255C56.0762 94.9403 51.6443 95.6581 47.2443 94.4792C46.4443 94.2648 45.616 94.6304 45.2318 95.3531C44.8476 96.0758 45.0184 96.979 45.6382 97.5103L46.7918 96.1681L47.2483 94.4644C38.4671 92.0956 33.2763 83.083 35.6115 74.3087C37.9803 65.5276 46.9928 60.3367 55.7671 62.6719C60.1671 63.8509 63.6463 66.6885 65.765 70.3367L67.2866 69.4582L66.4081 67.9367L58.5187 72.4916L59.408 74.0319L60.9295 73.1535L59.408 74.0319L60.2864 75.5535L68.1759 70.9985C69.0212 70.5105 69.3109 69.429 68.8229 68.5837C66.2783 64.1546 62.0134 60.6936 56.6801 59.2645C46.0135 56.4064 35.0622 62.7291 32.2041 73.3957C29.346 84.0624 35.6687 95.0136 46.3353 97.8718C47.1353 98.0861 47.9637 97.7206 48.3479 96.9978C48.7321 96.2751 48.5612 95.3719 47.9414 94.8406L46.7878 96.1829L46.3313 97.8866C51.6647 99.3156 57.0738 98.4468 61.5069 95.8873L99.6164 73.8973C100.03 73.6587 100.323 73.2767 100.442 72.8323C100.565 72.373 100.502 71.8957 100.26 71.4973L95.7045 63.6079C95.2165 62.7626 94.135 62.4728 93.2897 62.9608L55.1802 84.9508C53.456 85.9338 51.4986 86.1873 49.5983 85.694C49.1539 85.5749 48.6618 85.6336 48.2634 85.8762C47.8649 86.1188 47.5572 86.4968 47.4381 86.9412L49.1418 87.3977L49.5983 85.694C45.6872 84.646 43.3703 80.6114 44.4035 76.6963C45.4515 72.7852 49.4901 70.4535 53.4012 71.5015C55.3123 72.0136 56.8808 73.2119 57.8677 74.9212C58.3557 75.7665 59.4372 76.0563 60.2825 75.5683L59.408 74.0319Z" fill="#3DD2CC"/>
<path d="M76.4115 85.2411L77.2899 86.7626L98.0842 74.757L109.197 94.0258L89.9386 105.157L77.933 84.3626L76.4115 85.2411L77.2899 86.7626L76.4115 85.2411L74.8899 86.1195L87.774 108.435C88.0017 108.83 88.3946 109.141 88.839 109.261C89.2835 109.38 89.7755 109.321 90.174 109.078L112.505 96.1983C113.35 95.7103 113.64 94.6288 113.152 93.7835L100.268 71.4677C99.7796 70.6224 98.6981 70.3326 97.8528 70.8207L75.5182 83.7156C75.1237 83.9433 74.8121 84.3361 74.693 84.7806C74.5739 85.225 74.6326 85.7171 74.8751 86.1155L76.4115 85.2411Z" fill="#3DD2CC"/>
</g>
<defs>
<filter id="filter0_d_12_44" x="0" y="0" width="188" height="187.996" filterUnits="userSpaceOnUse" color-interpolation-filters="sRGB">
<feFlood flood-opacity="0" result="BackgroundImageFix"/>
<feColorMatrix in="SourceAlpha" type="matrix" values="0 0 0 0 0 0 0 0 0 0 0 0 0 0 0 0 0 0 127 0" result="hardAlpha"/>
<feOffset dy="4"/>
<feGaussianBlur stdDeviation="10"/>
<feComposite in2="hardAlpha" operator="out"/>
<feColorMatrix type="matrix" values="0 0 0 0 0.239216 0 0 0 0 0.823529 0 0 0 0 0.8 0 0 0 0.2 0"/>
<feBlend mode="normal" in2="BackgroundImageFix" result="effect1_dropShadow_12_44"/>
<feBlend mode="normal" in="SourceGraphic" in2="effect1_dropShadow_12_44" result="shape"/>
</filter>
</defs>
</svg>
