<svg width="97" height="34" viewBox="0 0 97 34" fill="none" xmlns="http://www.w3.org/2000/svg">
<path d="M15.5975 33.8731L12.6051 33.8337V14.9221L8.84675 25.5769L6.31545 25.9951L4.74329 19.8307L3.24749 13.1339L4.03636 19.5943L3.7013 33.7211L0 33.6745C0 33.0389 0.561523 0.609864 0.561523 0.609864H3.03302L7.21478 19.1748L6.98741 22.6287L11.5695 0.609864H14.7148L15.5975 33.8731ZM30.7548 4.70323L31.4551 15.3508L31.0483 25.9069L28.3302 33.1032L22.382 33.873L18.5215 26.744L18.4985 9.31451C18.377 8.8606 20.1572 2.28314 20.1572 2.28314L25.3147 0L27.6665 0.5991L23.1708 3.48773L20.4931 9.42393L20.5769 22.0198C20.5769 22.0198 22.4326 29.4014 22.6214 29.4014C22.8101 29.4014 25.0524 31.3997 25.0524 31.3997L27.3278 29.6298L29.1531 23.4272L29.9484 15.0938L28.5676 8.35843L25.3882 8.96754L23.4221 15.742L24.0913 18.9758L26.4339 18.405L25.3358 14.3337L26.873 13.9912C26.873 13.9912 27.5008 18.9566 27.5008 19.1282C27.5008 19.2524 25.9323 26.8906 25.9323 26.8906L24.6143 28.2039L23.4848 21.5829L22.5432 15.7425L23.8612 6.85627L28.2703 2.30368L30.7548 4.70323ZM45.6551 0.455772L43.9706 11.1839H41.8876L43.8905 11.6926L40.4066 33.8723L38.4146 33.7226L32.4233 0.455366H36.2515L38.7451 20.0556L39.2983 25.367L39.1197 21.8081L42.1565 0.455247H45.6552L45.6551 0.455772ZM54.206 30.8575L56.1354 30.8666L56.001 33.873L49.1546 33.8612L49.0009 31.1716L50.7019 31.0584L50.8796 25.9586L50.5344 7.11964L50.1625 13.7564C50.0603 10.2942 49.9811 6.39096 49.9296 3.88609L47.6017 3.9829V0.686918L56.3464 0.625717L56.212 3.73536L54.1639 3.70981L54.206 30.8575ZM70.9849 23.9761C71.1183 24.4327 71.1719 28.0858 70.904 28.5417C70.6371 28.9983 66.4498 33.8173 66.4498 33.8173L64.1918 33.863L62.1171 33.8712L62.5515 29.3981L62.8562 26.4255L63.4472 23.6528L64.4588 21.2911L67.0849 22.8811L67.9649 26.829L66.3614 28.2984L65.2917 28.0126L66.6615 26.7423L64.8904 24.545L64.0215 28.6546L64.1053 30.3104L64.7901 31.1186L66.216 30.9286L68.3211 28.8455L69.3014 25.0025L67.6418 21.6829L65.5035 19.2097L63.4205 18.7247L62.2175 20.8152L61.472 26.5122C61.472 26.5122 61.0651 33.6584 61.0265 33.5945V33.6621L59.3337 33.8228C59.2003 33.7425 59.3337 0.636659 59.3337 0.636659L64.1444 1.20655L66.4162 3.03301L68.5544 7.48516L68.3188 8.53176L67.263 7.02853C67.263 7.02853 64.8568 4.21198 64.5899 4.13621C64.3229 4.06043 62.0953 3.60378 62.0953 3.60378L60.8923 6.34348V9.99653L63.4761 11.6705L65.4837 10.5289L66.394 8.93525L64.612 7.22292L63.4089 7.81288L64.7013 9.10701L63.9658 10.0011L62.1395 8.93173L62.4737 6.53897L63.2092 5.51153L65.9486 6.97544L68.132 9.58182L65.8823 13.4211L63.2092 14.4485L66.1491 16.275L68.5553 17.8732C68.5553 17.8732 69.97 20.1225 70.1034 20.465C70.2368 20.8076 70.8518 23.5189 70.9852 23.9756L70.9849 23.9761ZM76.7207 30.747L82.5713 30.4475V33.7707L73.2007 33.873L73.441 20.5671L72.5794 0.655873L82.1762 0.636697L81.9176 3.88609L75.1298 3.71534L77.0794 4.24228L75.9546 14.6597L80.8839 14.9638L81.0367 18.6167L77.3446 18.7428L77.1053 16.8852L76.7207 30.747ZM93.3987 5.17266L90.6548 3.79024L88.6987 5.05149L88.4189 7.88805L88.7318 9.49994C89.6118 10.5355 93.5312 16.6743 93.5312 16.6743L96.5228 21.9466C96.5228 21.9466 97.0162 28.4428 96.9996 28.7568C96.9831 29.0709 95.0905 33.0262 95.0905 33.0262L90.1127 33.8747L86.2512 32.1158L84.5399 28.9623L85.3564 23.3401L89.4839 21.5556L92.144 23.8816L92.5279 27.4451L90.6345 29.5437L88.2007 28.8907L88.3922 26.4934L89.8686 25.6752L89.8107 26.5318L88.8902 27.8825L90.4201 27.6597L91.0506 25.4578L89.3597 24.4331L87.8896 25.8322L87.3373 28.1199L87.5996 29.6322L91.3156 30.5555L93.1188 28.2203L93.5496 26.6824L93.2431 22.9627L90.5194 17.4083L87.1026 12.958L85.3039 7.14432L86.4545 2.31139L90.2516 0.396283L94.6238 1.79717L96.0763 3.78984L96.1196 7.84739L94.3937 10.6446L91.1168 10.5423L89.4103 7.68933L90.1356 5.67843L91.4013 5.27842L93.0407 6.61997L92.7839 7.84739L91.3148 7.19901L92.8704 9.20086L93.9427 7.97523L93.3987 5.17266Z" fill="#191919"/>
</svg>
